<svg width="314" height="136" viewBox="0 0 314 136" fill="none" xmlns="http://www.w3.org/2000/svg">
<path d="M234.996 135.677V136H78.9961L110.163 27.45L129.594 95.1339L156.903 0L186.977 104.751L206.551 36.5999L234.996 135.677Z" fill="black"/>
<path d="M314 135.837V136.001H235L250.783 81.0298L260.623 115.306L274.453 67.1289L289.683 120.176L299.595 85.6635L314 135.837Z" fill="black"/>
<path d="M82 135.829V135.999H0L16.3827 78.9405L26.5961 114.518L40.9512 64.5117L56.7594 119.573L67.0479 83.7501L82 135.829Z" fill="black"/>
<path d="M141.996 136H78.9961L110.496 27L130.134 94.9645L141.996 136Z" fill="#EF767A"/>
<path d="M266.904 136H235L250.952 80.8008L260.897 115.219L266.904 136Z" fill="#EF767A"/>
<path d="M33.1154 136H0L16.5577 78.7051L26.8802 114.43L33.1154 136Z" fill="#EF767A"/>
<path d="M234.996 135.678V136H177.996L186.97 104.877L206.546 37L234.996 135.678Z" fill="#EF767A"/>
<path d="M314 135.837V136H285.135L289.679 120.239L299.593 85.8652L314 135.837Z" fill="#EF767A"/>
<path d="M82.0006 135.83V135.999H52.0391L56.756 119.64L67.0461 83.9609L82.0006 135.83Z" fill="#EF767A"/>
<path d="M195.996 136H117.996L129.718 95.1339L156.993 0L187.028 104.751L195.996 136Z" fill="#1F3930"/>
<path d="M294.25 136.001H254.75L260.686 115.306L274.498 67.1289L289.709 120.176L294.25 136.001Z" fill="#1F3930"/>
<path d="M61.5 135.999H20.5L26.6614 114.518L40.9981 64.5117L56.7861 119.573L61.5 135.999Z" fill="#1F3930"/>
</svg>
