<svg width="320" height="206" viewBox="0 0 320 206" fill="none" xmlns="http://www.w3.org/2000/svg">
<path d="M106.098 205.098V205.318H0L21.1973 131.646L34.4123 177.582L52.986 113.016L73.44 184.109L86.7521 137.856L106.098 205.098Z" fill="black"/>
<path d="M42.3946 205.319H0L21.1973 131.647L34.4122 177.583L42.3946 205.319Z" fill="#24463B"/>
<path d="M106.098 205.098V205.318H67.3379L73.4401 184.109L86.7521 137.856L106.098 205.098Z" fill="#24463B"/>
<path d="M79.5469 205.318H26.4297L34.4121 177.582L52.9858 113.016L73.4398 184.109L79.5469 205.318Z" fill="#1C362D"/>
<path d="M131.386 124.174C124.215 131.33 119.774 141.24 119.774 152.192C119.774 174.02 137.41 191.709 159.162 191.709C170.093 191.709 179.98 187.244 187.117 180.03L212.381 205.348L106.03 205.406L105.972 98.7054L131.386 124.174Z" fill="#1C362D"/>
<path d="M159.162 112.67C180.918 112.67 198.549 130.364 198.549 152.187C198.549 163.047 194.181 172.884 187.112 180.025L131.381 124.169C138.508 117.067 148.322 112.67 159.162 112.67Z" fill="#1C362D"/>
<path d="M159.16 191.711C137.404 191.711 119.773 174.017 119.773 152.194C119.773 141.241 124.213 131.337 131.384 124.176L187.115 180.032C179.978 187.246 170.091 191.711 159.16 191.711Z" fill="#24463B"/>
<path d="M319.022 205.489H212.521L319.148 98.5101L319.022 205.489Z" fill="#24463B"/>
<path d="M319.28 0.68396L221.49 98.4905L319.333 98.7144L319.28 0.68396ZM246.034 74.0053L294.759 25.2767L294.785 74.1172L246.034 74.0053Z" fill="#1C362D"/>
<path d="M246.053 29.4984L246.075 78.339L294.8 29.6104L246.053 29.4984Z" fill="#1C362D"/>
<path d="M147.215 11.6861C147.241 5.31858 142.117 0.135143 135.769 0.108599C129.421 0.0820547 124.254 5.22246 124.228 11.59C124.201 17.9576 129.326 23.141 135.673 23.1676C142.021 23.1941 147.188 18.0537 147.215 11.6861Z" fill="#24463B"/>
<path d="M204.379 11.6256C204.405 5.25805 199.281 0.0745962 192.933 0.048052C186.585 0.0215078 181.418 5.16192 181.392 11.5295C181.365 17.897 186.49 23.0805 192.837 23.107C199.185 23.1336 204.352 17.9932 204.379 11.6256Z" fill="#24463B"/>
<path d="M135.535 57.151C129.187 57.1245 124.019 62.2646 123.993 68.6324C123.98 71.8348 125.27 74.7371 127.367 76.8369L143.675 60.5876C141.599 58.4773 138.722 57.1643 135.535 57.151Z" fill="#1F3930"/>
<path d="M204.141 68.9659C204.167 62.5981 199.043 57.4149 192.695 57.3884C189.361 57.3744 186.357 58.7892 184.247 61.0505L200.404 77.4198C202.686 75.3225 204.127 72.3157 204.141 68.9659Z" fill="#1C362D"/>
<path d="M221.104 98.4027L200.399 77.4268C198.343 79.3144 195.603 80.4617 192.594 80.4491C186.246 80.4225 181.122 75.2393 181.148 68.8715C181.161 65.8483 182.333 63.1037 184.242 61.0523L163.892 40.4308L143.667 60.5877C145.721 62.682 146.991 65.5579 146.977 68.7286C146.951 75.0965 141.784 80.2366 135.436 80.2101C132.28 80.1969 129.429 78.9103 127.364 76.837L106.205 97.9222L221.104 98.4027Z" fill="#1C362D"/>
<path d="M146.977 68.7285C146.99 65.5578 145.726 62.6819 143.666 60.5876L127.363 76.8369C129.434 78.9102 132.285 80.1968 135.436 80.21C141.784 80.2365 146.951 75.0964 146.977 68.7285Z" fill="#24463B"/>
<path d="M192.599 80.4488C195.608 80.4614 198.348 79.3141 200.404 77.4265L184.247 61.0573C182.343 63.1035 181.166 65.8533 181.153 68.8765C181.127 75.2391 186.251 80.4223 192.599 80.4488Z" fill="#24463B"/>
<path d="M265.697 151.925V205.115L212.614 151.862L265.697 151.925Z" fill="#1C362D"/>
<path d="M265.572 151.84V98.6508L318.65 151.904L265.572 151.84Z" fill="#1C362D"/>
</svg>
