<svg width="474" height="490" viewBox="0 0 474 490" fill="none" xmlns="http://www.w3.org/2000/svg">
<path d="M145 186.189L145 162.468L118.427 139.393L73.1746 100.098L72.9375 100.303L72.9375 124.024L73.1746 123.819L145 186.189Z" fill="#24463B"/>
<path d="M145 137.564L145 113.843L118.427 90.7691L73.1746 51.4739L72.9375 51.6785L72.9375 75.3996L73.1746 75.1949L145 137.564Z" fill="#24463B"/>
<path d="M145 86.0905L145 62.3694L118.427 39.2954L73.1746 0.000175518L72.9375 0.204842L72.9375 23.9259L73.1746 23.7212L145 86.0905Z" fill="#24463B"/>
<path d="M1.744 185.987L73.0623 124.06L73.0623 100.339L28.0472 139.43L1.63864 162.365L1.63205 162.365L1.38185 162.583L1 162.906L1 186.198L1.38185 185.921L1.744 185.987Z" fill="#1C362D"/>
<path d="M1.744 137.363L73.0623 75.4358L73.0623 51.7148L28.0472 90.8053L1.63864 113.741L1.63205 113.741L1.38185 113.959L1 114.282L1 137.574L1.38185 137.297L1.744 137.363Z" fill="#1C362D"/>
<path d="M1.744 85.889L73.0623 23.962L73.0623 0.24101L28.0472 39.3315L1.63864 62.2669L1.63205 62.2669L1.38185 62.4848L1 62.8083L1 86.1002L1.38185 85.8229L1.744 85.889Z" fill="#1C362D"/>
<path d="M316.514 489.421V489.746H474L442.536 380.393L422.921 448.578L395.351 352.739L364.99 458.266L345.231 389.61L316.514 489.421Z" fill="black"/>
<path d="M411.072 489.746H474L442.536 380.392L422.921 448.577L411.072 489.746Z" fill="#24463B"/>
<path d="M316.513 489.42V489.746H374.047L364.989 458.265L345.23 389.61L316.513 489.42Z" fill="#24463B"/>
<path d="M355.926 489.746H434.77L422.921 448.578L395.351 352.739L364.991 458.266L355.926 489.746Z" fill="#1C362D"/>
<path d="M278.979 369.3C289.624 379.921 296.215 394.631 296.215 410.888C296.215 443.288 270.037 469.544 237.751 469.544C221.525 469.544 206.85 462.917 196.256 452.209L158.756 489.789L316.616 489.876L316.703 331.496L278.979 369.3Z" fill="#1C362D"/>
<path d="M237.751 352.226C205.458 352.226 179.287 378.49 179.287 410.883C179.287 427.003 185.77 441.603 196.263 452.203L278.987 369.294C268.407 358.752 253.84 352.226 237.751 352.226Z" fill="#1C362D"/>
<path d="M237.751 469.547C270.044 469.547 296.215 443.283 296.215 410.891C296.215 394.633 289.624 379.931 278.979 369.303L196.256 452.211C206.85 462.92 221.525 469.547 237.751 469.547Z" fill="#24463B"/>
<path d="M0.462876 490H158.547L0.275391 331.208L0.462876 490Z" fill="#24463B"/>
<path d="M0.0801849 185.999L145.232 331.176L0.000686646 331.509L0.0801849 185.999ZM108.802 294.832L36.4776 222.502L36.4378 294.998L108.802 294.832Z" fill="#1C362D"/>
<path d="M108.777 228.772L108.744 301.267L36.4199 228.938L108.777 228.772Z" fill="#1C362D"/>
<path d="M255.484 202.33C255.445 192.879 263.051 185.185 272.473 185.145C281.895 185.106 289.565 192.736 289.605 202.188C289.644 211.639 282.038 219.333 272.615 219.373C263.193 219.412 255.523 211.782 255.484 202.33Z" fill="#24463B"/>
<path d="M170.632 202.24C170.593 192.789 178.199 185.095 187.622 185.055C197.044 185.016 204.714 192.646 204.753 202.098C204.792 211.549 197.186 219.243 187.764 219.283C178.342 219.322 170.672 211.692 170.632 202.24Z" fill="#24463B"/>
<path d="M272.824 269.816C282.246 269.777 289.916 277.407 289.955 286.859C289.975 291.612 288.06 295.92 284.948 299.037L260.741 274.917C263.822 271.785 268.093 269.836 272.824 269.816Z" fill="#1F3930"/>
<path d="M170.986 287.355C170.947 277.903 178.553 270.21 187.975 270.17C192.924 270.149 197.383 272.25 200.515 275.606L176.533 299.904C173.145 296.79 171.007 292.327 170.986 287.355Z" fill="#1C362D"/>
<path d="M145.806 331.048L176.54 299.912C179.592 302.714 183.659 304.417 188.125 304.399C197.548 304.359 205.154 296.666 205.114 287.214C205.096 282.726 203.356 278.652 200.522 275.607L230.729 244.998L260.75 274.917C257.7 278.026 255.816 282.295 255.836 287.001C255.875 296.453 263.545 304.083 272.967 304.044C277.651 304.024 281.883 302.114 284.949 299.037L316.355 330.335L145.806 331.048Z" fill="#1C362D"/>
<path d="M255.835 287.001C255.815 282.295 257.692 278.026 260.749 274.917L284.948 299.037C281.875 302.114 277.643 304.024 272.966 304.044C263.544 304.083 255.874 296.453 255.835 287.001Z" fill="#24463B"/>
<path d="M188.117 304.398C183.652 304.416 179.584 302.714 176.533 299.912L200.515 275.614C203.341 278.652 205.088 282.733 205.107 287.221C205.146 296.665 197.54 304.358 188.117 304.398Z" fill="#24463B"/>
<path d="M79.6172 410.491V489.443L158.41 410.397L79.6172 410.491Z" fill="#1C362D"/>
<path d="M79.8036 410.369V331.417L1.01758 410.463L79.8036 410.369Z" fill="#1C362D"/>
</svg>
