<svg width="320" height="320" viewBox="0 0 320 320" fill="none" xmlns="http://www.w3.org/2000/svg">
<path d="M212.708 0C212.708 58.6185 260.32 106.167 319.167 106.459L319.167 -4.65346e-06L212.708 0Z" fill="#EF767A"/>
<path d="M266.367 0C266.367 29.3256 289.954 53.1338 319.167 53.4365L319.167 -2.22714e-06L266.367 0Z" fill="#1F3930"/>
<path d="M319.376 319.791V213.332H292.657V319.791H319.376Z" fill="#EF767A"/>
<path d="M292.866 319.791V213.332H266.147V319.791H292.866Z" fill="#1F3930"/>
<path d="M239.637 319.791L239.637 213.332H212.918L212.918 319.791H239.637Z" fill="#1F3930"/>
<path d="M266.355 319.791V213.332H239.636L239.636 319.791H266.355Z" fill="#EF767A"/>
<path d="M265.596 160.104L319.376 106.874H212.917L265.596 160.104Z" fill="#EF767A"/>
<path d="M265.596 160.104L319.376 213.333H212.917L265.596 160.104Z" fill="#1F3930"/>
<mask id="mask0_507_932" style="mask-type:alpha" maskUnits="userSpaceOnUse" x="106" y="213" width="107" height="108">
<rect x="106.458" y="213.542" width="106.459" height="106.459" fill="#D9D9D9"/>
</mask>
<g mask="url(#mask0_507_932)">
<path d="M212.917 213.556V320.288H159.445V351.011C136.118 351.162 117.253 370.138 117.175 393.557C117.175 393.767 117.18 393.981 117.18 394.191C117.185 394.43 117.19 394.669 117.199 394.908C117.209 395.293 117.229 395.678 117.253 396.058C117.331 397.321 117.462 398.574 117.647 399.803C117.676 400.008 117.71 400.212 117.744 400.412C117.778 400.617 117.812 400.817 117.846 401.017C118.069 402.27 118.351 403.504 118.682 404.718C118.725 404.874 118.764 405.03 118.813 405.186C118.876 405.415 118.949 405.654 119.017 405.883C119.061 406.039 119.109 406.19 119.163 406.346C119.202 406.478 119.245 406.605 119.284 406.731C119.343 406.907 119.401 407.082 119.459 407.258C119.498 407.375 119.542 407.497 119.581 407.609C119.629 407.755 119.683 407.902 119.736 408.048C119.78 408.18 119.829 408.311 119.882 408.438C119.931 408.57 119.979 408.701 120.033 408.833C120.076 408.95 120.125 409.067 120.169 409.184C120.242 409.369 120.315 409.555 120.392 409.74C120.485 409.964 120.577 410.188 120.674 410.403C120.723 410.52 120.771 410.632 120.825 410.744C120.883 410.876 120.941 411.008 121 411.134C121.078 411.305 121.155 411.471 121.233 411.637C121.282 411.739 121.33 411.841 121.379 411.944C121.461 412.114 121.544 412.29 121.632 412.456C121.719 412.631 121.806 412.812 121.904 412.987C121.996 413.168 122.088 413.338 122.181 413.514C122.268 413.679 122.356 413.84 122.443 414.001C122.511 414.128 122.579 414.255 122.647 414.372C122.725 414.508 122.798 414.64 122.876 414.772C123.031 415.045 123.192 415.308 123.352 415.571C123.454 415.742 123.556 415.913 123.663 416.078C123.872 416.415 124.086 416.746 124.304 417.073C124.411 417.239 124.523 417.4 124.635 417.566C124.727 417.697 124.82 417.829 124.912 417.965C125.048 418.156 125.184 418.346 125.32 418.531C125.437 418.692 125.548 418.848 125.67 419.009C125.762 419.131 125.855 419.257 125.952 419.379C126.098 419.569 126.243 419.76 126.389 419.94C126.511 420.096 126.632 420.247 126.759 420.398C127.279 421.037 127.818 421.661 128.372 422.271C128.576 422.495 128.785 422.719 128.994 422.934C129.572 423.543 130.17 424.133 130.782 424.704C130.928 424.84 131.074 424.972 131.215 425.104C131.944 425.767 132.697 426.396 133.465 427.005C133.586 427.098 133.708 427.195 133.829 427.288C140.934 432.759 149.808 436.03 159.44 436.094V473.369L126.214 444.5L106.62 427.473L106.557 427.42L106.532 427.4L106.464 427.346L106.25 320.273H106.532V213.542H212.917V213.556Z" fill="#EF767A"/>
<path d="M212.71 240.207L159.377 213.542V266.878L212.71 240.207Z" fill="#1F3930"/>
<path d="M212.71 293.651L159.377 266.878V320.429L212.71 293.651Z" fill="#1F3930"/>
<path d="M159.792 240.207L106.551 266.829L106.458 266.878V213.542L106.551 213.585L159.792 240.207Z" fill="#1F3930"/>
<path d="M159.792 293.651L106.458 266.878V320.429L159.792 293.651Z" fill="#1F3930"/>
</g>
<path d="M200.127 144.707C207.056 144.707 212.673 139.969 212.673 134.125C212.673 128.281 207.056 123.543 200.127 123.543C193.198 123.543 187.581 128.281 187.581 134.125C187.581 139.969 193.198 144.707 200.127 144.707Z" fill="#1F3930"/>
<path d="M200.493 197.723C207.354 197.723 212.917 192.985 212.917 187.141C212.917 181.297 207.354 176.559 200.493 176.559C193.631 176.559 188.068 181.297 188.068 187.141C188.068 192.985 193.631 197.723 200.493 197.723Z" fill="#1F3930"/>
<path d="M150.796 134.173C150.796 128.302 145.248 123.543 138.404 123.543C134.962 123.543 131.849 124.748 129.602 126.695L147.139 141.714C149.398 139.786 150.796 137.12 150.796 134.173Z" fill="#1F3930"/>
<path d="M138.296 197.723C145.2 197.723 150.796 192.975 150.796 187.119C150.796 184.042 149.248 181.276 146.787 179.339L129.114 194.308C131.398 196.405 134.665 197.723 138.296 197.723Z" fill="#1F3930"/>
<path d="M106.458 213.542L129.112 194.277C127.056 192.379 125.799 189.845 125.799 187.057C125.799 181.176 131.397 176.408 138.303 176.408C141.581 176.408 144.563 177.483 146.796 179.244L169.067 160.31L147.116 141.648C144.854 143.56 141.741 144.747 138.303 144.747C131.397 144.747 125.799 139.98 125.799 134.098C125.799 131.174 127.181 128.528 129.421 126.606L106.458 107.083V213.542Z" fill="#1F3930"/>
<path d="M138.379 144.707C141.798 144.707 144.893 143.523 147.142 141.603L129.548 126.536C127.322 128.466 125.948 131.117 125.948 134.041C125.948 139.932 131.513 144.707 138.379 144.707Z" fill="#EF767A"/>
<path d="M125.948 187.134C125.948 189.902 127.202 192.418 129.254 194.302L146.898 179.375C144.675 177.632 141.694 176.559 138.421 176.559C131.535 176.559 125.948 181.293 125.948 187.134Z" fill="#EF767A"/>
<path d="M53.6436 213.546V319.995C53.4108 320 53.1731 320 52.9403 320C23.7009 320 0 296.17 0 266.771C0 237.372 23.7009 213.542 52.9403 213.542C53.1731 213.542 53.4108 213.541 53.6436 213.546Z" fill="#1F3930"/>
<path d="M52.8154 319.995L52.8154 213.546C53.0482 213.541 53.2859 213.542 53.5186 213.542C82.7581 213.542 106.459 237.372 106.459 266.771C106.459 296.17 82.7581 320 53.5186 320C53.2859 320 53.0482 320 52.8154 319.995Z" fill="#1F3930"/>
<path d="M53.6432 240.107V293.429C53.4108 293.434 53.1783 293.439 52.941 293.439C38.3458 293.439 26.5107 281.497 26.5107 266.771C26.5107 252.044 38.3458 240.103 52.941 240.103C53.1783 240.103 53.4108 240.103 53.6432 240.107Z" fill="#EF767A"/>
<path d="M52.8158 293.434L52.8158 240.112C53.0482 240.108 53.2807 240.103 53.518 240.103C68.1132 240.103 79.9482 252.044 79.9482 266.771C79.9482 281.498 68.1132 293.439 53.518 293.439C53.2807 293.439 53.0482 293.439 52.8158 293.434Z" fill="#EF767A"/>
</svg>
