<svg width="68" height="89" viewBox="0 0 68 89" fill="none" xmlns="http://www.w3.org/2000/svg">
<path d="M49.8508 27.981L33.6959 55.9605L17.541 27.981L33.6959 0L49.8508 27.981Z" fill="white"/>
<path d="M41.8372 75.0075L41.7329 75.1885L33.7567 89.0003L25.7821 75.1885L25.6777 75.0075L25.7637 74.8586L33.7567 61.0146L41.7513 74.8586L41.8372 75.0075Z" fill="white"/>
<path d="M24.2342 65.3428L22.2148 68.8398H26.2536L24.2342 65.3428Z" fill="white"/>
<path d="M32.2791 58.4268L32.2484 58.4805L26.2502 68.8704L26.2333 68.8412L24.2093 65.335L24.1832 65.292L20.2519 58.4805L20.2289 58.4406H20.235L20.2151 58.4068L16.227 51.4971L12.1944 58.4805H0L16.1549 30.501L32.2668 58.4068L32.2791 58.4268Z" fill="white"/>
<path d="M20.2384 58.4409H20.232L20.2109 58.4053H20.2174L20.2384 58.4409Z" fill="white"/>
<path d="M43.2166 65.417L45.236 68.914H41.1973L43.2166 65.417Z" fill="white"/>
<path d="M67.449 58.5509H55.2576L51.2251 51.5675L47.237 58.4772H47.24L47.217 58.5186L43.2949 65.3102L43.232 65.4176L41.2157 68.9116L41.1988 68.9408L35.2006 58.5509L35.1822 58.5186L35.1776 58.511L35.1699 58.4972L35.1822 58.4772L51.2941 30.5698L67.449 58.5509Z" fill="white"/>
<path d="M20.2515 58.4823L20.2285 58.4424H20.2347L20.2577 58.4823L24.2043 65.3183H24.1982" fill="white"/>
<path d="M43.2891 65.3188L47.1943 58.5487L47.2173 58.5088H47.2204L47.1974 58.5487" fill="white"/>
</svg>
