<svg width="1920" height="112" viewBox="0 0 1920 112" fill="none" xmlns="http://www.w3.org/2000/svg">
<path d="M51.1832 111.143H0L25.5916 22.4336L41.546 77.7465L51.1832 111.143Z" fill="#EF767A"/>
<path d="M691.15 111.143H639.967L665.558 22.4336L681.513 77.7465L691.15 111.143Z" fill="#EF767A"/>
<path d="M1331.12 111.143H1279.93L1305.53 22.4336L1321.48 77.7465L1331.12 111.143Z" fill="#EF767A"/>
<path d="M435.164 111.143H383.98L409.572 22.4336L425.527 77.7465L435.164 111.143Z" fill="#EF767A"/>
<path d="M1075.13 111.143H1023.95L1049.54 22.4336L1065.49 77.7465L1075.13 111.143Z" fill="#EF767A"/>
<path d="M1715.1 111.143H1663.91L1689.51 22.4336L1705.46 77.7465L1715.1 111.143Z" fill="#EF767A"/>
<path d="M179.177 111.143H127.994L153.586 22.4336L169.54 77.7465L179.177 111.143Z" fill="#EF767A"/>
<path d="M819.144 111.143H767.961L793.553 22.4336L809.507 77.7465L819.144 111.143Z" fill="#EF767A"/>
<path d="M1459.11 111.143H1407.93L1433.52 22.4336L1449.47 77.7465L1459.11 111.143Z" fill="#EF767A"/>
<path d="M563.157 111.143H511.974L537.565 22.4336L553.52 77.7465L563.157 111.143Z" fill="#EF767A"/>
<path d="M1203.12 111.143H1151.94L1177.53 22.4336L1193.49 77.7465L1203.12 111.143Z" fill="#EF767A"/>
<path d="M1843.09 111.143H1791.91L1817.5 22.4336L1833.45 77.7465L1843.09 111.143Z" fill="#EF767A"/>
<path d="M307.17 111.143H255.986L281.578 22.4336L297.532 77.7465L307.17 111.143Z" fill="#EF767A"/>
<path d="M947.136 111.143H895.953L921.545 22.4336L937.499 77.7465L947.136 111.143Z" fill="#EF767A"/>
<path d="M1587.1 111.143H1535.92L1561.51 22.4336L1577.47 77.7465L1587.1 111.143Z" fill="#EF767A"/>
<path d="M128.093 110.878V111.142H81.2969L88.6641 85.6045L104.736 29.9102L128.093 110.878Z" fill="#EF767A"/>
<path d="M768.059 110.878V111.142H721.264L728.631 85.6045L744.703 29.9102L768.059 110.878Z" fill="#EF767A"/>
<path d="M1408.03 110.878V111.142H1361.23L1368.6 85.6045L1384.67 29.9102L1408.03 110.878Z" fill="#EF767A"/>
<path d="M512.073 110.878V111.142H465.277L472.645 85.6045L488.716 29.9102L512.073 110.878Z" fill="#EF767A"/>
<path d="M1152.04 110.878V111.142H1105.24L1112.61 85.6045L1128.68 29.9102L1152.04 110.878Z" fill="#EF767A"/>
<path d="M1792.01 110.878V111.142H1745.21L1752.58 85.6045L1768.65 29.9102L1792.01 110.878Z" fill="#EF767A"/>
<path d="M256.087 110.878V111.142H209.291L216.658 85.6045L232.73 29.9102L256.087 110.878Z" fill="#EF767A"/>
<path d="M896.054 110.878V111.142H849.258L856.625 85.6045L872.697 29.9102L896.054 110.878Z" fill="#EF767A"/>
<path d="M1536.02 110.878V111.142H1489.22L1496.59 85.6045L1512.66 29.9102L1536.02 110.878Z" fill="#EF767A"/>
<path d="M640.067 110.878V111.142H593.271L600.639 85.6045L616.71 29.9102L640.067 110.878Z" fill="#EF767A"/>
<path d="M1280.03 110.878V111.142H1233.24L1240.61 85.6045L1256.68 29.9102L1280.03 110.878Z" fill="#EF767A"/>
<path d="M1920 110.878V111.142H1873.21L1880.57 85.6045L1896.64 29.9102L1920 110.878Z" fill="#EF767A"/>
<path d="M384.08 110.878V111.142H337.284L344.651 85.6045L360.723 29.9102L384.08 110.878Z" fill="#EF767A"/>
<path d="M1024.05 110.878V111.142H977.251L984.618 85.6045L1000.69 29.9102L1024.05 110.878Z" fill="#EF767A"/>
<path d="M1664.01 110.878V111.142H1617.22L1624.59 85.6045L1640.66 29.9102L1664.01 110.878Z" fill="#EF767A"/>
<path d="M96.0378 111.142H31.9092L41.5464 77.7456L63.9705 0L88.6647 85.6046L96.0378 111.142Z" fill="#1F3930"/>
<path d="M736.006 111.142H671.877L681.514 77.7456L703.938 0L728.632 85.6046L736.006 111.142Z" fill="#1F3930"/>
<path d="M1375.97 111.142H1311.84L1321.48 77.7456L1343.91 0L1368.6 85.6046L1375.97 111.142Z" fill="#1F3930"/>
<path d="M480.018 111.142H415.89L425.527 77.7456L447.951 0L472.645 85.6046L480.018 111.142Z" fill="#1F3930"/>
<path d="M1119.99 111.142H1055.86L1065.49 77.7456L1087.92 0L1112.61 85.6046L1119.99 111.142Z" fill="#1F3930"/>
<path d="M1759.95 111.142H1695.82L1705.46 77.7456L1727.88 0L1752.58 85.6046L1759.95 111.142Z" fill="#1F3930"/>
<path d="M224.031 111.142H159.902L169.54 77.7456L191.964 0L216.658 85.6046L224.031 111.142Z" fill="#1F3930"/>
<path d="M863.999 111.142H799.87L809.507 77.7456L831.931 0L856.626 85.6046L863.999 111.142Z" fill="#1F3930"/>
<path d="M1503.96 111.142H1439.84L1449.47 77.7456L1471.9 0L1496.59 85.6046L1503.96 111.142Z" fill="#1F3930"/>
<path d="M608.011 111.142H543.883L553.52 77.7456L575.944 0L600.638 85.6046L608.011 111.142Z" fill="#1F3930"/>
<path d="M1247.98 111.142H1183.85L1193.49 77.7456L1215.91 0L1240.61 85.6046L1247.98 111.142Z" fill="#1F3930"/>
<path d="M1887.95 111.142H1823.82L1833.45 77.7456L1855.88 0L1880.57 85.6046L1887.95 111.142Z" fill="#1F3930"/>
<path d="M352.025 111.142H287.896L297.534 77.7456L319.958 0L344.652 85.6046L352.025 111.142Z" fill="#1F3930"/>
<path d="M991.992 111.142H927.863L937.5 77.7456L959.925 0L984.619 85.6046L991.992 111.142Z" fill="#1F3930"/>
<path d="M1631.96 111.142H1567.83L1577.47 77.7456L1599.89 0L1624.59 85.6046L1631.96 111.142Z" fill="#1F3930"/>
</svg>
