<svg width="1560" height="20" viewBox="0 0 1560 20" fill="none" xmlns="http://www.w3.org/2000/svg">
<path d="M1560 10.4084V-2.47955e-05L1538.29 9.39964L1516.7 0.049427L1516.65 0.0256901L1516.59 0.049427L1495 9.39964L1473.41 0.049427L1473.35 0.0256901L1473.29 0.049427L1451.7 9.39964L1430 -2.47955e-05V10.4084L1451.7 19.8081L1473.35 10.4342L1495 19.8081L1516.65 10.4342L1538.29 19.8081L1560 10.4084Z" fill="#EF767A"/>
<path d="M780 10.4084V-2.47955e-05L758.295 9.39964L736.704 0.049427L736.647 0.0256901L736.59 0.049427L714.999 9.39964L693.408 0.049427L693.351 0.0256901L693.294 0.049427L671.703 9.39964L650 -2.47955e-05V10.4084L671.703 19.8081L693.351 10.4342L714.999 19.8081L736.647 10.4342L758.295 19.8081L780 10.4084Z" fill="#EF767A"/>
<path d="M1170 10.4084V-2.47955e-05L1148.29 9.39964L1126.7 0.049427L1126.65 0.0256901L1126.59 0.049427L1105 9.39964L1083.41 0.049427L1083.35 0.0256901L1083.29 0.049427L1061.7 9.39964L1040 -2.47955e-05V10.4084L1061.7 19.8081L1083.35 10.4342L1105 19.8081L1126.65 10.4342L1148.29 19.8081L1170 10.4084Z" fill="#EF767A"/>
<path d="M390 10.4084V-2.47955e-05L368.295 9.39964L346.704 0.049427L346.647 0.0256901L346.59 0.049427L324.999 9.39964L303.408 0.049427L303.351 0.0256901L303.294 0.049427L281.703 9.39964L260 -2.47955e-05V10.4084L281.703 19.8081L303.351 10.4342L324.999 19.8081L346.647 10.4342L368.295 19.8081L390 10.4084Z" fill="#EF767A"/>
<path d="M1430 10.4084V-2.47955e-05L1408.29 9.39964L1386.7 0.049427L1386.65 0.0256901L1386.59 0.049427L1365 9.39964L1343.41 0.049427L1343.35 0.0256901L1343.29 0.049427L1321.7 9.39964L1300 -2.47955e-05V10.4084L1321.7 19.8081L1343.35 10.4342L1365 19.8081L1386.65 10.4342L1408.29 19.8081L1430 10.4084Z" fill="#EF767A"/>
<path d="M650 10.4084V-2.47955e-05L628.295 9.39964L606.704 0.049427L606.647 0.0256901L606.59 0.049427L584.999 9.39964L563.408 0.049427L563.351 0.0256901L563.294 0.049427L541.703 9.39964L520 -2.47955e-05V10.4084L541.703 19.8081L563.351 10.4342L584.999 19.8081L606.647 10.4342L628.295 19.8081L650 10.4084Z" fill="#EF767A"/>
<path d="M1040 10.4084V-2.47955e-05L1018.29 9.39964L996.704 0.049427L996.647 0.0256901L996.59 0.049427L974.999 9.39964L953.408 0.049427L953.351 0.0256901L953.294 0.049427L931.703 9.39964L910 -2.47955e-05V10.4084L931.703 19.8081L953.351 10.4342L974.999 19.8081L996.647 10.4342L1018.29 19.8081L1040 10.4084Z" fill="#EF767A"/>
<path d="M260 10.4084V-2.47955e-05L238.295 9.39964L216.704 0.049427L216.647 0.0256901L216.59 0.049427L194.999 9.39964L173.408 0.049427L173.351 0.0256901L173.294 0.049427L151.703 9.39964L130 -2.47955e-05V10.4084L151.703 19.8081L173.351 10.4342L194.999 19.8081L216.647 10.4342L238.295 19.8081L260 10.4084Z" fill="#EF767A"/>
<path d="M1300 10.4084V-2.47955e-05L1278.29 9.39964L1256.7 0.049427L1256.65 0.0256901L1256.59 0.049427L1235 9.39964L1213.41 0.049427L1213.35 0.0256901L1213.29 0.049427L1191.7 9.39964L1170 -2.47955e-05V10.4084L1191.7 19.8081L1213.35 10.4342L1235 19.8081L1256.65 10.4342L1278.29 19.8081L1300 10.4084Z" fill="#EF767A"/>
<path d="M520 10.4084V-2.47955e-05L498.295 9.39964L476.704 0.049427L476.647 0.0256901L476.59 0.049427L454.999 9.39964L433.408 0.049427L433.351 0.0256901L433.294 0.049427L411.703 9.39964L390 -2.47955e-05V10.4084L411.703 19.8081L433.351 10.4342L454.999 19.8081L476.647 10.4342L498.295 19.8081L520 10.4084Z" fill="#EF767A"/>
<path d="M910 10.4084V-2.47955e-05L888.295 9.39964L866.704 0.049427L866.647 0.0256901L866.59 0.049427L844.999 9.39964L823.408 0.049427L823.351 0.0256901L823.294 0.049427L801.703 9.39964L780 -2.47955e-05V10.4084L801.703 19.8081L823.351 10.4342L844.999 19.8081L866.647 10.4342L888.295 19.8081L910 10.4084Z" fill="#EF767A"/>
<path d="M130 10.4084V-2.47955e-05L108.295 9.39964L86.7042 0.049427L86.6469 0.0256901L86.5895 0.049427L64.999 9.39964L43.4085 0.049427L43.3511 0.0256901L43.2938 0.049427L21.7033 9.39964L0 -2.47955e-05V10.4084L21.7033 19.8081L43.3511 10.4342L64.999 19.8081L86.6469 10.4342L108.295 19.8081L130 10.4084Z" fill="#EF767A"/>
</svg>
