<svg width="387" height="368" viewBox="0 0 387 368" fill="none" xmlns="http://www.w3.org/2000/svg">
<path d="M257.364 172.793C257.329 208.192 228.672 236.887 193.293 236.981L257.364 172.793Z" fill="#C1272D"/>
<path d="M257.364 172.793C257.329 208.192 228.672 236.887 193.293 236.981L257.364 172.793Z" fill="#1F3930"/>
<path d="M193.293 236.981C193.328 201.582 221.986 172.887 257.364 172.793L193.293 236.981Z" fill="#EF767A"/>
<path d="M257.364 109.898C257.329 145.297 228.672 173.992 193.293 174.086L257.364 109.898Z" fill="#C1272D"/>
<path d="M257.364 109.898C257.329 145.297 228.672 173.992 193.293 174.086L257.364 109.898Z" fill="#1F3930"/>
<path d="M193.293 174.086C193.328 138.687 221.986 109.992 257.364 109.898L193.293 174.086Z" fill="#EF767A"/>
<path d="M129.046 172.793C129.081 208.192 157.739 236.887 193.117 236.981L129.046 172.793Z" fill="#C1272D"/>
<path d="M129.046 172.793C129.081 208.192 157.739 236.887 193.117 236.981L129.046 172.793Z" fill="#1F3930"/>
<path d="M193.117 236.981C193.082 201.582 164.425 172.887 129.046 172.793L193.117 236.981Z" fill="#EF767A"/>
<path d="M129.044 109.899C129.079 145.298 157.737 173.993 193.115 174.087L129.044 109.899Z" fill="#1F3930"/>
<path d="M129.044 109.899C129.079 145.298 157.737 173.993 193.115 174.087L129.044 109.899Z" fill="#1F3930"/>
<path d="M193.115 174.087C193.08 138.688 164.423 109.993 129.044 109.899L193.115 174.087Z" fill="#EF767A"/>
<path d="M258.669 302.601C258.503 266.948 229.547 238.113 193.864 238.113C193.653 238.113 193.431 238.113 193.22 238.124C157.836 238.468 129.226 267.17 129.059 302.612C129.048 302.723 129.048 302.823 129.048 302.934C129.048 338.521 157.714 367.401 193.209 367.745C193.42 367.756 193.642 367.756 193.853 367.756C229.647 367.756 258.658 338.743 258.658 302.945C258.669 302.812 258.669 302.712 258.669 302.601ZM193.22 270.535C193.431 270.524 193.653 270.524 193.864 270.524C211.65 270.524 226.095 284.858 226.261 302.612C226.095 320.367 211.65 334.701 193.864 334.701C193.653 334.701 193.431 334.701 193.22 334.69C175.723 334.357 161.634 320.156 161.467 302.612C161.634 285.058 175.723 270.868 193.22 270.535Z" fill="#EF767A"/>
<path d="M1.17645 367.83C1.17059 367.888 1.17059 367.941 1.17645 367.994V368H0.836914V367.83H1.17645Z" fill="black"/>
<path d="M0.832031 367.83H1.1716C1.16575 367.888 1.16575 367.941 1.1716 367.994C1.05451 368 0.943266 368 0.832031 368V367.83Z" fill="#C1272D"/>
<path d="M67.5795 239.835H62.2402V368H67.5795V239.835Z" fill="#1F3930"/>
<path d="M129.076 257.634L119.498 268.694L118.942 269.332H47.9619V245.936H118.942L119.498 246.574L129.076 257.634Z" fill="#1F3930"/>
<path d="M1.08984 290.181L10.6678 279.121L11.2181 278.483H82.2037V301.88H11.2181L10.6678 301.241L1.08984 290.181Z" fill="#EF767A"/>
<path d="M322.718 175.64L386.76 239.688H258.67L322.718 175.64Z" fill="#EF767A"/>
<path d="M322.718 111.622L386.76 175.669H258.67L322.718 111.622Z" fill="#1F3930"/>
<path d="M322.718 303.799L386.76 367.853H258.67L322.718 303.799Z" fill="#EF767A"/>
<path d="M322.718 239.782L386.76 303.835H258.67L322.718 239.782Z" fill="#1F3930"/>
<path d="M237.629 302.806C237.517 278.784 218.008 259.355 193.965 259.355C193.823 259.355 193.674 259.355 193.531 259.363C169.691 259.595 150.414 278.934 150.301 302.813C150.294 302.888 150.294 302.956 150.294 303.03C150.294 327.008 169.609 346.466 193.524 346.698C193.666 346.705 193.816 346.705 193.958 346.705C218.075 346.705 237.622 327.157 237.622 303.038C237.629 302.948 237.629 302.881 237.629 302.806ZM193.531 281.2C193.674 281.193 193.823 281.193 193.965 281.193C205.949 281.193 215.681 290.851 215.793 302.813C215.681 314.776 205.949 324.434 193.965 324.434C193.823 324.434 193.674 324.434 193.531 324.426C181.742 324.202 172.249 314.634 172.137 302.813C172.249 290.986 181.742 281.425 193.531 281.2Z" fill="#1F3930"/>
<path d="M369.132 64.208C369.132 70.359 367.944 76.4498 365.636 82.1326C363.327 87.8154 359.944 92.9789 355.679 97.3283C351.414 101.678 346.35 105.128 340.778 107.482C335.205 109.836 329.232 111.047 323.2 111.047C317.168 111.047 311.196 109.836 305.623 107.482C300.05 105.128 294.987 101.678 290.722 97.3283C286.457 92.9789 283.073 87.8154 280.765 82.1326C278.457 76.4498 277.269 70.359 277.269 64.208H291.072C291.072 68.5105 291.903 72.7708 293.518 76.7458C295.133 80.7207 297.499 84.3324 300.482 87.3747C303.466 90.417 307.008 92.8303 310.905 94.4768C314.803 96.1233 318.981 96.9707 323.2 96.9707C327.419 96.9707 331.597 96.1233 335.495 94.4768C339.393 92.8303 342.935 90.417 345.918 87.3747C348.902 84.3325 351.268 80.7207 352.883 76.7458C354.497 72.7708 355.328 68.5105 355.328 64.208H369.132Z" fill="#EF767A"/>
<mask id="mask0_1_1924" style="mask-type:alpha" maskUnits="userSpaceOnUse" x="258" y="0" width="130" height="65">
<rect x="258.67" width="128.496" height="64.6352" fill="#D9D9D9"/>
</mask>
<g mask="url(#mask0_1_1924)">
<path d="M258.772 0V33.4915L194.864 5.52572L130.787 33.5625L66.7094 5.52572L2.63205 33.5625L-61.4453 5.52572L-125.692 33.6395V64.7704L-61.4453 36.6626L2.46225 64.6285L2.63205 64.6994L2.80182 64.6285L66.7094 36.6626L130.617 64.6285L130.787 64.6994L130.956 64.6285L194.864 36.6626L258.772 64.6285L259.082 64.7645H277.166C277.213 90.3166 297.721 111.017 323.019 111.017C348.316 111.017 368.824 90.3225 368.871 64.7645H387.149V0H258.772ZM354.972 64.7527C354.926 82.5486 340.641 96.9604 323.019 96.9604C305.397 96.9604 291.112 82.5486 291.065 64.7527H291.147C291.194 46.9568 305.52 32.5449 323.183 32.5449C340.851 32.5449 355.171 46.9568 355.218 64.7527H354.972Z" fill="#1F3930"/>
</g>
</svg>
