<svg width="275" height="269" viewBox="0 0 275 269" fill="none" xmlns="http://www.w3.org/2000/svg">
<path d="M60.206 232.837C56.5734 237.474 49.8634 238.383 45.4449 234.487C22.8608 214.574 7.57566 187.795 2.1651 158.297C-3.87835 125.349 2.83241 91.3755 20.9857 63.018C39.139 34.6605 67.4298 13.9572 100.329 4.95464C133.227 -4.04792 168.369 -0.702566 198.885 14.3368C229.402 29.3762 253.098 55.0285 265.344 86.2798C277.59 117.531 277.505 152.135 265.104 183.328C252.704 214.521 228.881 240.06 198.291 254.955C170.96 268.262 139.982 272.217 110.259 266.376C104.389 265.223 101.05 259.179 102.717 253.434C104.36 247.774 110.248 244.544 116.045 245.606C140.569 250.099 166.029 246.689 188.544 235.726C214.251 223.209 234.271 201.747 244.692 175.533C255.113 149.32 255.185 120.24 244.894 93.9774C234.603 67.7148 214.689 46.1574 189.044 33.5188C163.399 20.8802 133.867 18.0689 106.22 25.6343C78.5728 33.1998 54.798 50.5982 39.5426 74.4289C24.2872 98.2596 18.6477 126.81 23.7264 154.498C28.1466 178.597 40.409 200.536 58.5252 217.114C62.9922 221.202 63.9398 228.07 60.206 232.837Z" fill="white"/>
</svg>
