<svg width="287" height="295" viewBox="0 0 287 295" fill="none" xmlns="http://www.w3.org/2000/svg">
<path d="M78.1133 223.999C84.9761 230.772 89.2277 240.153 89.2314 250.523C89.2389 271.191 72.3729 287.946 51.5642 287.955C41.1063 287.959 31.6463 283.736 24.8161 276.908L0.65547 300.89L102.399 300.903L102.418 199.874L78.1133 223.999Z" fill="#1F3930"/>
<path d="M51.622 213.082C30.7968 213.09 13.9262 229.884 13.9341 250.589C13.9379 260.893 18.1223 270.224 24.8914 276.996L78.218 223.981C71.3931 217.246 61.9974 213.078 51.622 213.082Z" fill="#1F3930"/>
<path d="M51.6342 287.943C72.4694 287.935 89.3481 271.185 89.3403 250.536C89.3364 240.172 85.0802 230.802 78.2101 224.029L24.8578 276.902C31.6953 283.726 41.1654 287.947 51.6342 287.943Z" fill="#EF767A"/>
<path d="M300.582 0.94521L300.619 99.3787L201.4 99.4177C201.38 45.0473 245.784 0.966797 300.582 0.94521Z" fill="#EF767A"/>
<path d="M300.591 24.9534L300.619 99.3787L225.764 99.4082C225.749 58.3023 259.248 24.9697 300.591 24.9534Z" fill="#1F3930"/>
<path d="M250.455 250.129L300.559 199.392L201.34 199.431L250.455 250.129Z" fill="#EF767A"/>
<path d="M250.458 250.13L300.6 300.828L201.38 300.867L250.458 250.13Z" fill="#1F3930"/>
<mask id="mask0_1_66" style="mask-type:alpha" maskUnits="userSpaceOnUse" x="102" y="199" width="100" height="102">
<rect width="101.434" height="99.2191" transform="matrix(-0.000376971 -1 1 -0.000393993 102.457 300.908)" fill="#D9D9D9"/>
</mask>
<g mask="url(#mask0_1_66)">
<path d="M102.432 199.474L201.309 199.435L201.328 250.383L229.79 250.372C229.938 272.598 247.525 290.566 269.22 290.631C269.414 290.631 269.613 290.627 269.807 290.627C270.029 290.622 270.25 290.617 270.471 290.608C270.828 290.598 271.185 290.58 271.537 290.556C272.707 290.482 273.868 290.356 275.006 290.18C275.196 290.152 275.386 290.12 275.571 290.087C275.761 290.055 275.946 290.022 276.131 289.99C277.292 289.776 278.434 289.507 279.559 289.192C279.704 289.15 279.848 289.113 279.993 289.067C280.205 289.006 280.426 288.937 280.638 288.872C280.783 288.83 280.923 288.784 281.067 288.733C281.189 288.696 281.307 288.654 281.424 288.617C281.587 288.561 281.749 288.506 281.912 288.45C282.02 288.413 282.133 288.371 282.237 288.334C282.373 288.288 282.508 288.237 282.644 288.186C282.766 288.144 282.888 288.098 283.005 288.047C283.127 288 283.249 287.954 283.371 287.903C283.479 287.861 283.588 287.815 283.696 287.773C283.868 287.704 284.039 287.634 284.211 287.56C284.419 287.472 284.626 287.384 284.825 287.291C284.933 287.245 285.037 287.199 285.141 287.148C285.263 287.092 285.385 287.037 285.503 286.981C285.661 286.907 285.814 286.833 285.968 286.758C286.063 286.712 286.157 286.666 286.252 286.619C286.41 286.541 286.573 286.462 286.726 286.378C286.889 286.295 287.056 286.212 287.219 286.119C287.386 286.031 287.544 285.943 287.706 285.855C287.86 285.771 288.009 285.688 288.158 285.605C288.275 285.54 288.393 285.475 288.501 285.41C288.628 285.336 288.75 285.266 288.871 285.192C289.124 285.044 289.368 284.891 289.612 284.738C289.77 284.641 289.928 284.544 290.082 284.442C290.393 284.242 290.7 284.039 291.003 283.83C291.157 283.728 291.306 283.622 291.459 283.515C291.581 283.427 291.703 283.339 291.829 283.251C292.006 283.121 292.182 282.991 292.353 282.862C292.502 282.751 292.647 282.644 292.796 282.528C292.909 282.44 293.026 282.352 293.139 282.259C293.315 282.121 293.491 281.982 293.658 281.843C293.803 281.727 293.943 281.611 294.083 281.49C294.674 280.995 295.252 280.481 295.817 279.953C296.024 279.758 296.232 279.559 296.431 279.36C296.995 278.808 297.542 278.239 298.07 277.655C298.196 277.516 298.318 277.377 298.44 277.243C299.054 276.548 299.636 275.83 300.201 275.098C300.287 274.982 300.377 274.867 300.463 274.751C305.528 267.979 308.556 259.523 308.611 250.345L343.144 250.332L316.41 282L300.644 300.676L300.594 300.736L300.576 300.76L300.527 300.824L201.334 301.067L201.334 300.799L102.457 300.838L102.419 199.474L102.432 199.474Z" fill="#EF767A"/>
<path d="M127.122 199.662L102.438 250.488L151.849 250.468L127.122 199.662Z" fill="#1F3930"/>
<path d="M176.633 199.642L151.85 250.468L201.459 250.449L176.633 199.642Z" fill="#1F3930"/>
<path d="M127.141 250.082L151.823 300.801L151.868 300.888L102.457 300.908L102.498 300.82L127.141 250.082Z" fill="#1F3930"/>
<path d="M176.652 250.063L151.869 300.889L201.479 300.869L176.652 250.063Z" fill="#1F3930"/>
</g>
<path d="M201.546 98.4023L102.419 199.644L201.638 199.837L201.546 98.4023ZM127.298 174.299L176.689 123.859L176.736 174.395L127.298 174.299Z" fill="#1F3930"/>
<path d="M127.988 123.79L128.03 174.102L178.789 123.886L127.988 123.79Z" fill="#1F3930"/>
<path d="M300.462 199.596L300.424 98.1619L275.522 98.1717L275.56 199.606L300.462 199.596Z" fill="#EF767A"/>
<path d="M275.753 199.606L275.715 98.1716L250.813 98.1814L250.851 199.616L275.753 199.606Z" fill="#1F3930"/>
<path d="M226.144 199.626L226.105 98.1912L201.203 98.201L201.242 199.635L226.144 199.626Z" fill="#1F3930"/>
<path d="M251.046 199.616L251.008 98.1814L226.106 98.1912L226.144 199.626L251.046 199.616Z" fill="#EF767A"/>
</svg>
