<svg width="287" height="282" viewBox="0 0 287 282" fill="none" xmlns="http://www.w3.org/2000/svg">
<path d="M74.5907 209.21C81.1416 215.533 85.2 224.293 85.2038 233.975C85.2112 253.272 69.1123 268.917 49.2495 268.924C39.2671 268.928 30.2371 264.985 23.7173 258.609L0.65547 281.001L97.7731 281.015L97.79 186.685L74.5907 209.21Z" fill="#1F3930"/>
<path d="M49.3025 199.015C29.4241 199.023 13.3205 214.704 13.3279 234.035C13.3316 243.656 17.3258 252.368 23.7872 258.692L74.6894 209.192C68.1748 202.903 59.2062 199.012 49.3025 199.015Z" fill="#1F3930"/>
<path d="M49.3144 268.912C69.2024 268.905 85.3138 253.266 85.3063 233.986C85.3026 224.309 81.2399 215.56 74.6821 209.236L23.7553 258.604C30.282 264.975 39.3215 268.916 49.3144 268.912Z" fill="#EF767A"/>
<path d="M286.945 0.945188L286.98 92.8516L192.272 92.8881C192.253 42.1229 234.639 0.965344 286.945 0.945188Z" fill="#EF767A"/>
<path d="M286.954 23.3614L286.98 92.8516L215.529 92.8791C215.514 54.499 247.49 23.3766 286.954 23.3614Z" fill="#1F3930"/>
<path d="M239.097 233.606L286.923 186.233L192.215 186.27L239.097 233.606Z" fill="#EF767A"/>
<path d="M239.099 233.607L286.961 280.943L192.253 280.979L239.099 233.607Z" fill="#1F3930"/>
<mask id="mask0_1_66" style="mask-type:alpha" maskUnits="userSpaceOnUse" x="97" y="186" width="96" height="96">
<rect x="97.8262" y="281.018" width="94.7084" height="94.7084" transform="rotate(-90.0221 97.8262 281.018)" fill="#D9D9D9"/>
</mask>
<g mask="url(#mask0_1_66)">
<path d="M97.8025 186.31L192.184 186.273L192.202 233.843L219.37 233.833C219.512 254.584 236.299 271.361 257.008 271.422C257.193 271.422 257.383 271.418 257.568 271.418C257.78 271.413 257.991 271.409 258.202 271.4C258.543 271.392 258.883 271.374 259.22 271.352C260.336 271.283 261.444 271.166 262.531 271.001C262.712 270.975 262.893 270.945 263.07 270.914C263.251 270.884 263.428 270.854 263.604 270.823C264.712 270.624 265.803 270.373 266.877 270.078C267.015 270.039 267.153 270.005 267.291 269.961C267.493 269.905 267.704 269.84 267.907 269.78C268.045 269.741 268.179 269.697 268.317 269.65C268.433 269.615 268.545 269.576 268.657 269.542C268.812 269.49 268.968 269.438 269.123 269.386C269.226 269.351 269.334 269.312 269.433 269.278C269.562 269.234 269.692 269.187 269.821 269.139C269.938 269.1 270.054 269.057 270.166 269.009C270.282 268.966 270.399 268.923 270.515 268.875C270.619 268.836 270.722 268.793 270.826 268.754C270.989 268.689 271.153 268.624 271.317 268.555C271.515 268.473 271.714 268.39 271.903 268.304C272.007 268.261 272.106 268.217 272.205 268.17C272.322 268.118 272.438 268.066 272.55 268.014C272.701 267.945 272.847 267.876 272.994 267.806C273.085 267.763 273.175 267.72 273.266 267.676C273.416 267.603 273.572 267.529 273.718 267.451C273.873 267.374 274.033 267.296 274.188 267.209C274.348 267.127 274.498 267.045 274.654 266.963C274.8 266.885 274.943 266.807 275.085 266.729C275.197 266.668 275.309 266.608 275.412 266.547C275.533 266.478 275.649 266.413 275.766 266.344C276.007 266.205 276.24 266.063 276.473 265.92C276.624 265.829 276.775 265.738 276.921 265.643C277.219 265.457 277.512 265.267 277.8 265.072C277.947 264.977 278.089 264.877 278.236 264.778C278.352 264.696 278.469 264.614 278.589 264.531C278.757 264.41 278.925 264.289 279.089 264.168C279.232 264.064 279.369 263.965 279.512 263.857C279.619 263.774 279.732 263.692 279.839 263.606C280.007 263.476 280.175 263.346 280.335 263.216C280.473 263.108 280.607 263 280.74 262.888C281.305 262.425 281.856 261.945 282.395 261.452C282.594 261.27 282.792 261.084 282.981 260.898C283.52 260.383 284.042 259.851 284.546 259.306C284.667 259.177 284.783 259.047 284.899 258.922C285.485 258.273 286.041 257.602 286.58 256.919C286.662 256.811 286.748 256.703 286.83 256.595C291.665 250.272 294.555 242.377 294.608 233.808L327.571 233.795L302.053 263.364L287.003 280.801L286.956 280.857L286.939 280.879L286.891 280.94L192.208 281.166L192.208 280.916L97.8261 280.952L97.7896 186.31L97.8025 186.31Z" fill="#EF767A"/>
<path d="M121.369 186.485L97.8066 233.941L144.971 233.922L121.369 186.485Z" fill="#1F3930"/>
<path d="M168.629 186.467L144.973 233.923L192.327 233.904L168.629 186.467Z" fill="#1F3930"/>
<path d="M121.388 233.562L144.948 280.917L144.991 280.999L97.8262 281.018L97.8649 280.935L121.388 233.562Z" fill="#1F3930"/>
<path d="M168.649 233.544L144.992 281L192.346 280.981L168.649 233.544Z" fill="#1F3930"/>
</g>
<path d="M192.41 91.9401L97.7903 186.469L192.499 186.648L192.41 91.9401ZM121.538 162.804L168.684 115.709L168.728 162.894L121.538 162.804Z" fill="#1F3930"/>
<path d="M122.197 115.645L122.238 162.62L170.688 115.734L122.197 115.645Z" fill="#1F3930"/>
<path d="M286.829 186.424L286.793 91.7156L263.023 91.7247L263.059 186.433L286.829 186.424Z" fill="#EF767A"/>
<path d="M263.244 186.433L263.207 91.7246L239.437 91.7338L239.473 186.442L263.244 186.433Z" fill="#1F3930"/>
<path d="M215.89 186.451L215.854 91.7427L192.083 91.7518L192.12 186.46L215.89 186.451Z" fill="#1F3930"/>
<path d="M239.66 186.442L239.623 91.7336L215.853 91.7428L215.889 186.451L239.66 186.442Z" fill="#EF767A"/>
</svg>
