<svg width="370" height="44" viewBox="0 0 370 44" fill="none" xmlns="http://www.w3.org/2000/svg">
<path d="M25.906 10.4313V41.444H34.6484V0.962708L25.906 10.4373V10.4313ZM0 2.88637V43.3737L1.70412 41.5818L8.68981 34.2287V2.88037H0V2.88637ZM8.68981 24.2147L0.274293 31.7536L0.0408563 41.5878L0 43.3797L2.00175 41.5878L25.9119 20.1816L34.3916 12.5887L34.66 0.962708L8.69565 24.2147H8.68981Z" fill="white"/>
<path d="M70.1662 7.45191C69.0516 5.83985 67.4291 4.5514 65.2815 3.59855C63.1338 2.64569 60.4901 2.16626 57.3387 2.16626C54.1873 2.16626 51.5377 2.69362 49.3726 3.73637C47.2132 4.77911 45.5733 6.21741 44.4645 8.03323C43.3556 9.84905 42.8012 11.8986 42.8012 14.1758H51.1175C51.1175 13.2589 51.3685 12.4559 51.8704 11.7787C52.3723 11.1015 53.0843 10.5682 54.018 10.1846C54.9459 9.80108 56.0373 9.60934 57.292 9.60934C58.5468 9.60934 59.5214 9.78312 60.3442 10.1307C61.1671 10.4783 61.7916 10.9697 62.2234 11.5929C62.6495 12.2162 62.8654 12.9533 62.8654 13.7983C62.8654 14.7152 62.5678 15.5422 61.9842 16.2733C61.3947 17.0104 60.5135 17.5797 59.3521 17.9813C58.1966 18.3888 56.7376 18.5865 54.981 18.5865V22.7695C57.3095 22.7695 59.4863 22.5657 61.5289 22.1642C62.7545 21.9245 63.8867 21.6009 64.9255 21.2054C65.62 20.9417 66.2736 20.6481 66.8922 20.3185C68.4271 19.4915 69.6352 18.4547 70.5106 17.2022C71.386 15.9557 71.8237 14.5054 71.8237 12.8514C71.8237 10.8678 71.2692 9.06996 70.1662 7.45191ZM70.5689 24.5613C69.1566 23.0811 67.2774 21.9605 64.9313 21.2054C64.6862 21.1275 64.4411 21.0496 64.1843 20.9776C61.4881 20.2285 58.4184 19.851 54.9868 19.851V24.5853C57.0644 24.5853 58.751 24.819 60.0583 25.2745C61.3597 25.7299 62.3343 26.3652 62.9821 27.1742C63.6241 27.9832 63.9451 28.9361 63.9451 30.0388C63.9451 31.6928 63.3381 32.9033 62.1242 33.6764C60.9045 34.4435 59.2762 34.827 57.2395 34.827C55.9147 34.827 54.7183 34.6292 53.6445 34.2277C52.5707 33.8202 51.7303 33.1969 51.1234 32.352C50.5164 31.507 50.1779 30.4642 50.1079 29.2117H41.2021C41.2021 30.9017 41.529 32.5377 42.1709 34.1138C42.8129 35.6959 43.805 37.1103 45.1473 38.3568C46.4837 39.6092 48.1878 40.5801 50.2421 41.2752C50.5689 41.3891 50.9074 41.491 51.2576 41.5809C53.0901 42.0783 55.1911 42.33 57.5721 42.33C59.9532 42.33 62.1417 42.0843 63.9917 41.5809C64.7329 41.3771 65.4332 41.1434 66.0752 40.8677C68.3454 39.8969 70.0495 38.5545 71.1992 36.8466C72.3431 35.1386 72.915 33.167 72.915 30.9257C72.915 28.3129 72.1388 26.1974 70.5864 24.5613H70.5689Z" fill="white"/>
<path d="M106.448 25.6035C105.608 24.2312 104.487 23.0925 103.093 22.1876C102.159 21.5883 101.155 21.0969 100.081 20.7134C101.61 20.0002 102.859 19.0474 103.822 17.8608C104.978 16.4285 105.561 14.7026 105.561 12.6831C105.561 10.4777 104.978 8.6499 103.822 7.19964C102.661 5.75538 101.085 4.6647 99.1008 3.95156C97.1165 3.23842 94.8172 2.87286 92.2085 2.87286H78.4238V41.4305H93.1247C96.0952 41.4305 98.6689 41.0529 100.852 40.3038C103.034 39.5547 104.721 38.3861 105.917 36.81C107.114 35.2279 107.715 33.1544 107.715 30.5835C107.715 28.6359 107.3 26.9819 106.454 25.5975L106.448 25.6035ZM87.4871 10.1002H91.2397C92.7746 10.1002 93.9826 10.4298 94.858 11.095C95.7334 11.7542 96.1711 12.749 96.1711 14.0674C96.1711 14.9543 95.9727 15.6914 95.5817 16.3027C95.1907 16.908 94.6246 17.3754 93.8951 17.711C93.1656 18.0406 92.2785 18.2024 91.2455 18.2024H87.493V10.1061L87.4871 10.1002ZM97.49 32.2136C96.9356 32.9267 96.1945 33.4421 95.2665 33.7597C94.3328 34.0713 93.2823 34.2271 92.1034 34.2271H87.493V24.6986H92.1034C92.9963 24.6986 93.8075 24.7825 94.5429 24.9443C95.2724 25.1061 95.926 25.3758 96.4979 25.7414C97.0699 26.1069 97.5134 26.5863 97.8402 27.1736C98.1612 27.7609 98.3188 28.4621 98.3188 29.2711C98.3188 30.5176 98.0445 31.5004 97.4842 32.2136H97.49Z" fill="white"/>
<path d="M139.953 10.4305V41.4432H148.695V0.96187L139.953 10.4365V10.4305ZM114.047 2.88553V43.3728L115.751 41.581L122.737 34.2278V2.87954H114.047V2.88553ZM122.737 24.2079L114.315 31.7469L114.088 41.581L114.047 43.3728L116.049 41.581L139.959 20.1748L148.438 12.5819L148.707 0.955872L122.743 24.2019L122.737 24.2079Z" fill="white"/>
<path d="M191.467 33.4548L176.16 0.955872L160.893 33.4548L157.922 39.7892H168.386L170.621 33.4548L176.16 17.7537L181.745 33.4548L183.997 39.7892H194.455L191.473 33.4548H191.467ZM154.812 33.4548V41.581H163.822V41.4432H188.555V41.581H197.572V33.4548H154.817H154.812Z" fill="white"/>
<path d="M229.157 2.88654V41.4442H238.22V2.88654H229.157ZM206.466 16.9336V25.3056H234.841V16.9336H206.466ZM203.945 2.88654V41.4442H213.009V2.88654H203.945Z" fill="white"/>
<path d="M272.016 10.4305V41.4432H280.759V0.96187L272.016 10.4365V10.4305ZM246.11 2.88553V43.3728L247.814 41.581L254.8 34.2278V2.87954H246.104L246.11 2.88553ZM254.806 24.2079L246.385 31.7469L246.151 41.581L246.11 43.3728L248.112 41.581L272.022 20.1748L280.502 12.5819L280.77 0.955872L254.812 24.2019L254.806 24.2079Z" fill="white"/>
<path d="M323.134 33.1253V2.8797H313.907V33.1253H297.922V2.8797H288.695V41.4373H320.344V41.5752H329.034V33.1193H323.134V33.1253Z" fill="white"/>
<path d="M360.688 10.4313V41.444H369.431V0.962708L360.688 10.4373V10.4313ZM334.782 2.88637V43.3737L336.486 41.5818L343.472 34.2287V2.88037H334.782V2.88637ZM343.472 24.2147L335.057 31.7536L334.823 41.5878L334.782 43.3797L336.784 41.5878L360.694 20.1816L369.174 12.5887L369.442 0.962708L343.478 24.2147H343.472Z" fill="white"/>
</svg>
