<svg width="636" height="656" viewBox="0 0 636 656" fill="none" xmlns="http://www.w3.org/2000/svg">
<path d="M1.3419 406.569V438.313L36.9971 469.191L97.7151 521.777L98.0332 521.504V489.759L97.7151 490.033L1.3419 406.569Z" fill="#24463B"/>
<path d="M1.3419 471.639V503.384L36.9971 534.262L97.7151 586.848L98.0332 586.574V554.83L97.7151 555.104L1.3419 471.639Z" fill="#24463B"/>
<path d="M1.3419 540.524V572.269L36.9971 603.147L97.7151 655.733L98.0332 655.459V623.715L97.7151 623.989L1.3419 540.524Z" fill="#24463B"/>
<path d="M193.559 406.84L97.8659 489.712V521.456L158.266 469.144L193.7 438.451H193.709L194.045 438.16L194.557 437.727V406.557L194.045 406.928L193.559 406.84Z" fill="#1C362D"/>
<path d="M193.559 471.909L97.8659 554.782V586.526L158.266 534.214L193.7 503.521H193.709L194.045 503.229L194.557 502.796V471.626L194.045 471.997L193.559 471.909Z" fill="#1C362D"/>
<path d="M193.559 540.794L97.8659 623.667V655.411L158.266 603.099L193.7 572.406H193.709L194.045 572.114L194.557 571.681V540.511L194.045 540.883L193.559 540.794Z" fill="#1C362D"/>
<path d="M424.69 0.774075L424.69 0.33836L636 0.338379L593.783 146.679L567.463 55.4314L530.471 183.685L489.734 42.4667L463.221 134.343L424.69 0.774075Z" fill="black"/>
<path d="M551.565 0.339882L636 0.33989L593.783 146.68L567.463 55.433L551.565 0.339882Z" fill="#24463B"/>
<path d="M424.69 0.775704L424.69 0.339974L501.887 0.339981L489.734 42.4683L463.221 134.345L424.69 0.775704Z" fill="#24463B"/>
<path d="M477.571 0.33837L583.362 0.338379L567.464 55.4314L530.471 183.685L489.734 42.4667L477.571 0.33837Z" fill="#1C362D"/>
<path d="M374.326 161.523C388.608 147.309 397.452 127.625 397.452 105.868C397.452 62.5104 362.327 27.3728 319.007 27.3728C297.235 27.3728 277.544 36.2419 263.33 50.5719L213.013 0.281311L424.826 0.165149L424.942 212.114L374.326 161.523Z" fill="#1C362D"/>
<path d="M319.007 184.373C275.676 184.373 240.561 149.226 240.561 105.877C240.561 84.305 249.26 64.7658 263.339 50.581L374.335 161.532C360.14 175.64 340.594 184.373 319.007 184.373Z" fill="#1C362D"/>
<path d="M319.008 27.3706C362.338 27.3706 397.453 62.5179 397.453 105.866C397.453 127.623 388.609 147.297 374.327 161.521L263.331 50.5697C277.545 36.2397 297.236 27.3706 319.008 27.3706Z" fill="#24463B"/>
<path d="M0.580078 33.5047C0.601993 14.9942 15.6139 4.71092e-05 34.1244 4.87274e-05L131.786 5.72653e-05C161.666 5.98774e-05 176.634 36.1213 155.513 57.2561L57.7355 155.096C36.5934 176.252 0.428835 161.254 0.464245 131.345L0.580078 33.5047Z" fill="#24463B"/>
<path d="M0.106491 406.824L194.868 212.543L-0.000166082 212.098L0.106491 406.824ZM145.986 261.18L48.9435 357.974L48.8901 260.958L145.986 261.18Z" fill="#1C362D"/>
<path d="M145.955 349.584L145.91 252.568L48.8673 349.362L145.955 349.584Z" fill="#1C362D"/>
<path d="M342.801 384.967C342.749 397.616 352.955 407.912 365.597 407.965C378.239 408.017 388.531 397.806 388.584 385.158C388.636 372.51 378.43 362.213 365.788 362.161C353.145 362.108 342.854 372.319 342.801 384.967Z" fill="#24463B"/>
<path d="M228.949 385.088C228.896 397.736 239.102 408.032 251.745 408.085C264.387 408.138 274.679 397.927 274.731 385.279C274.784 372.63 264.578 362.334 251.936 362.281C239.293 362.229 229.002 372.439 228.949 385.088Z" fill="#24463B"/>
<path d="M366.067 294.657C378.71 294.709 389.001 284.499 389.054 271.85C389.081 265.489 386.511 259.724 382.335 255.553L349.855 287.83C353.99 292.022 359.72 294.63 366.067 294.657Z" fill="#1F3930"/>
<path d="M229.424 271.184C229.371 283.833 239.576 294.129 252.219 294.182C258.86 294.21 264.843 291.399 269.044 286.907L236.866 254.392C232.321 258.558 229.451 264.53 229.424 271.184Z" fill="#1C362D"/>
<path d="M195.638 212.715L236.876 254.381C240.97 250.632 246.428 248.353 252.42 248.378C265.063 248.43 275.269 258.726 275.216 271.375C275.191 277.38 272.857 282.832 269.055 286.907L309.585 327.869L349.867 287.83C345.774 283.67 343.246 277.957 343.273 271.659C343.325 259.01 353.616 248.8 366.259 248.852C372.544 248.879 378.222 251.434 382.336 255.553L424.476 213.669L195.638 212.715Z" fill="#1C362D"/>
<path d="M343.272 271.659C343.246 277.957 345.764 283.67 349.867 287.83L382.336 255.553C378.212 251.434 372.533 248.879 366.259 248.853C353.616 248.8 343.325 259.01 343.272 271.659Z" fill="#24463B"/>
<path d="M252.41 248.379C246.418 248.354 240.96 250.633 236.866 254.382L269.044 286.898C272.837 282.833 275.181 277.371 275.206 271.366C275.259 258.727 265.053 248.431 252.41 248.379Z" fill="#24463B"/>
<path d="M0.184388 57.6962L155.646 57.6962L0 212L0.184388 57.6962Z" fill="#24463B"/>
<path d="M58.5516 6.10513e-05L214.013 7.46421e-05L58.3672 154.304L58.5516 6.10513e-05Z" fill="#24463B"/>
<path d="M106.828 106.401L106.828 0.745995L212.55 106.527L106.828 106.401Z" fill="#1C362D"/>
<path d="M107.078 106.565L107.078 212.22L1.36476 106.439L107.078 106.565Z" fill="#1C362D"/>
</svg>
