<svg width="69" height="92" viewBox="0 0 69 92" fill="none" xmlns="http://www.w3.org/2000/svg">
<path d="M50.8362 28.6889L34.3615 57.3778L17.8867 28.6889L34.3615 0L50.8362 28.6889Z" fill="white"/>
<path d="M42.6635 76.9109L42.557 77.0966L34.426 91.2569L26.2919 77.0966L26.1855 76.9109L26.2731 76.7567L34.426 62.5618L42.5758 76.7567L42.6635 76.9109Z" fill="white"/>
<path d="M24.7116 67.0001L22.6522 70.5874H26.7709L24.7116 67.0001Z" fill="white"/>
<path d="M32.9181 59.9077L32.8868 59.9644L26.7683 70.6161L26.7526 70.5878L24.687 66.9911L24.662 66.947L20.6528 59.9644L20.6278 59.9235H20.634L20.6152 59.8889L16.5466 52.8024L12.4373 59.9644H-0.00012207L16.4747 31.2755L32.9056 59.8889L32.9181 59.9077Z" fill="white"/>
<path d="M20.6343 59.9235H20.628L20.6093 59.8888H20.6155L20.6343 59.9235Z" fill="white"/>
<path d="M44.075 67.0681L46.1343 70.6523H42.0156L44.075 67.0681Z" fill="white"/>
<path d="M68.7854 60.0292H56.3511L52.2418 52.8704L48.1732 59.9537H48.1763L48.1513 59.9977L44.1547 66.9615L44.0889 67.0716L42.0327 70.6526L42.0171 70.6841L35.8985 60.0292L35.8797 59.9977L35.8735 59.9883L35.8672 59.9757L35.8797 59.9537L52.3106 31.3403L68.7854 60.0292Z" fill="white"/>
<path d="M20.6539 59.9652L20.6289 59.9243H20.6351L20.6602 59.9652L24.685 66.973H24.6787" fill="white"/>
<path d="M44.1445 66.9726L48.1286 60.0309L48.1537 59.99H48.1568L48.1318 60.0309" fill="white"/>
</svg>
