<svg width="118" height="160" viewBox="0 0 118 160" fill="none" xmlns="http://www.w3.org/2000/svg">
<path d="M86.7273 50.0698L59.1481 99.1193L31.5746 50.0698L59.1481 1.02026L86.7273 50.0698Z" fill="white" stroke="#EF767A"/>
<path d="M45.766 134.199L59.2591 110.203L72.7538 134.202L72.7537 134.202L72.7562 134.207L72.7642 134.221L72.7215 134.295L72.7215 134.295L72.7187 134.299L59.2591 158.239L45.8 134.301L45.7994 134.299L45.7547 134.22L45.7643 134.202L45.766 134.199Z" fill="white" stroke="#EF767A"/>
<path d="M45.3269 122.686H39.9985L42.6627 117.949L45.3269 122.686Z" fill="white" stroke="#EF767A"/>
<path d="M56.1085 104.548L46.1759 122.219L43.057 116.667L43.0572 116.667L43.05 116.655L43.0069 116.583L36.2094 104.49L36.1433 104.354L36.1141 104.294L36.1076 104.281L36.1003 104.268L29.1438 91.9048L28.7077 91.1299L28.2721 91.9051L21.3948 104.145H1.28737L28.5855 55.5954L56.1085 104.548Z" fill="white" stroke="#EF767A"/>
<mask id="path-5-inside-1_261_978" fill="white">
<path d="M35.6942 104.573H35.6825L35.6533 104.513H35.665L35.6942 104.573Z"/>
</mask>
<path d="M35.6942 104.573H35.6825L35.6533 104.513H35.665L35.6942 104.573Z" fill="white"/>
<path d="M35.6942 104.573V105.573H37.2942L36.593 104.135L35.6942 104.573ZM35.6825 104.573L34.7838 105.011L35.0577 105.573H35.6825V104.573ZM35.6533 104.513V103.513H34.0528L34.7546 104.952L35.6533 104.513ZM35.665 104.513L36.5639 104.075L36.29 103.513H35.665V104.513ZM35.6942 103.573H35.6825V105.573H35.6942V103.573ZM36.5813 104.135L36.5521 104.075L34.7546 104.952L34.7838 105.011L36.5813 104.135ZM35.6533 105.513H35.665V103.513H35.6533V105.513ZM34.7661 104.951L34.7953 105.011L36.593 104.135L36.5639 104.075L34.7661 104.951Z" fill="#EF767A" mask="url(#path-5-inside-1_261_978)"/>
<path d="M73.082 122.807L75.7466 118.065L78.4113 122.807H73.082Z" fill="white" stroke="#EF767A"/>
<path d="M81.8951 105.133H81.9004L75.445 116.613L75.4447 116.614L75.3341 116.811L75.3338 116.812L72.2285 122.336L62.2971 104.673L89.823 55.7154L117.115 104.265H97.0195L90.1363 92.0248L89.7004 91.2497L89.2646 92.0248L82.3139 104.388L81.8951 105.133Z" fill="white" stroke="#EF767A"/>
<mask id="path-9-inside-2_261_978" fill="white">
<path d="M35.7225 104.646L35.6816 104.574H35.6933L35.7342 104.646L42.6148 116.877H42.6031"/>
</mask>
<path d="M35.7225 104.646L35.6816 104.574H35.6933L35.7342 104.646L42.6148 116.877H42.6031" fill="white"/>
<path d="M35.6816 104.574V103.574H33.9634L34.8122 105.068L35.6816 104.574ZM35.6933 104.574L36.5628 104.08L36.2753 103.574H35.6933V104.574ZM35.7342 104.646L36.6057 104.155L36.6036 104.152L35.7342 104.646ZM42.6148 116.877V117.877H44.3247L43.4864 116.387L42.6148 116.877ZM36.592 104.152L36.5511 104.08L34.8122 105.068L34.853 105.14L36.592 104.152ZM35.6816 105.574H35.6933V103.574H35.6816V105.574ZM34.8238 105.068L34.8647 105.14L36.6036 104.152L36.5628 104.08L34.8238 105.068ZM34.8626 105.136L41.7433 117.367L43.4864 116.387L36.6057 104.155L34.8626 105.136ZM42.6148 115.877H42.6031V117.877H42.6148V115.877Z" fill="#EF767A" mask="url(#path-9-inside-2_261_978)"/>
<mask id="path-11-inside-3_261_978" fill="white">
<path d="M75.8682 116.878L82.6729 104.767L82.7138 104.695H82.7196L82.6788 104.767"/>
</mask>
<path d="M75.8682 116.878L82.6729 104.767L82.7138 104.695H82.7196L82.6788 104.767" fill="white"/>
<path d="M82.6729 104.767L81.8035 104.273L81.8011 104.277L82.6729 104.767ZM82.7138 104.695V103.695H82.1318L81.8443 104.201L82.7138 104.695ZM82.7196 104.695L83.5891 105.189L84.4379 103.695H82.7196V104.695ZM76.74 117.368L83.5448 105.256L81.8011 104.277L74.9963 116.388L76.74 117.368ZM83.5424 105.261L83.5833 105.189L81.8443 104.201L81.8035 104.273L83.5424 105.261ZM82.7138 105.695H82.7196V103.695H82.7138V105.695ZM81.8502 104.201L81.8093 104.273L83.5483 105.261L83.5891 105.189L81.8502 104.201Z" fill="#EF767A" mask="url(#path-11-inside-3_261_978)"/>
</svg>
