<svg width="332" height="342" viewBox="0 0 332 342" fill="none" xmlns="http://www.w3.org/2000/svg">
<path d="M331.3 129.947V113.391L312.704 97.2866L281.037 69.8605L280.871 70.0033V86.5594L281.037 86.4166L331.3 129.947Z" fill="#24463B"/>
<path d="M331.3 96.0107V79.4546L312.704 63.3501L281.037 35.9239L280.871 36.0668V52.6229L281.037 52.4801L331.3 96.0107Z" fill="#24463B"/>
<path d="M331.3 60.0869V43.5308L312.704 27.4262L281.037 0.000118256L280.871 0.142963V16.6991L281.037 16.5562L331.3 60.0869Z" fill="#24463B"/>
<path d="M231.048 129.811L280.956 86.5886V70.0325L249.455 97.3158L230.974 113.324H230.97L230.795 113.476L230.527 113.701V129.958L230.795 129.764L231.048 129.811Z" fill="#1C362D"/>
<path d="M231.048 95.8701L280.956 52.6482V36.0921L249.455 63.3753L230.974 79.3831H230.97L230.795 79.5352L230.527 79.761V96.0176L230.795 95.824L231.048 95.8701Z" fill="#1C362D"/>
<path d="M231.048 59.9453L280.956 16.7234V0.167248L249.455 27.4505L230.974 43.4583H230.97L230.795 43.6104L230.527 43.8362V60.0928L230.795 59.8992L231.048 59.9453Z" fill="#1C362D"/>
<path d="M110.503 341.591L110.503 341.818L0.294914 341.818L22.3133 265.495L36.0401 313.085L55.3333 246.194L76.5796 319.846L90.4073 271.928L110.503 341.591Z" fill="black"/>
<path d="M44.3317 341.82L0.294915 341.82L22.3133 265.496L36.0401 313.086L44.3317 341.82Z" fill="#24463B"/>
<path d="M110.504 341.59L110.504 341.818L70.2422 341.818L76.5807 319.846L90.4084 271.928L110.504 341.59Z" fill="#24463B"/>
<path d="M82.9227 341.818L27.748 341.818L36.0396 313.085L55.3328 246.194L76.5791 319.846L82.9227 341.818Z" fill="#1C362D"/>
<path d="M136.77 257.754C129.321 265.167 124.709 275.433 124.709 286.78C124.709 309.393 143.028 327.719 165.622 327.719C176.977 327.719 187.246 323.094 194.66 315.62L220.902 341.849L110.432 341.909L110.371 231.368L136.77 257.754Z" fill="#1C362D"/>
<path d="M165.622 245.835C188.221 245.835 206.535 264.166 206.535 286.774C206.535 298.025 201.998 308.216 194.655 315.614L136.766 257.748C144.169 250.39 154.363 245.835 165.622 245.835Z" fill="#1C362D"/>
<path d="M165.622 327.721C143.023 327.721 124.709 309.39 124.709 286.781C124.709 275.434 129.322 265.173 136.77 257.755L194.66 315.621C187.247 323.095 176.977 327.721 165.622 327.721Z" fill="#24463B"/>
<path d="M331.944 129.818L230.367 231.145L332 231.377L331.944 129.818ZM255.861 205.779L306.474 155.296L306.501 205.895L255.861 205.779Z" fill="#1C362D"/>
<path d="M255.877 159.671L255.9 210.269L306.513 159.787L255.877 159.671Z" fill="#1C362D"/>
<path d="M153.213 141.216C153.24 134.619 147.917 129.249 141.323 129.221C134.73 129.194 129.362 134.519 129.335 141.116C129.307 147.713 134.63 153.083 141.224 153.11C147.818 153.138 153.185 147.812 153.213 141.216Z" fill="#24463B"/>
<path d="M212.591 141.154C212.619 134.557 207.296 129.187 200.702 129.16C194.109 129.132 188.741 134.458 188.714 141.055C188.686 147.651 194.009 153.021 200.603 153.049C207.196 153.076 212.564 147.751 212.591 141.154Z" fill="#24463B"/>
<path d="M141.077 188.317C134.483 188.289 129.116 193.614 129.088 200.211C129.074 203.529 130.414 206.536 132.592 208.711L149.532 191.877C147.376 189.691 144.387 188.33 141.077 188.317Z" fill="#1F3930"/>
<path d="M212.344 200.559C212.371 193.962 207.049 188.592 200.455 188.565C196.992 188.55 193.871 190.016 191.68 192.359L208.462 209.317C210.833 207.145 212.329 204.03 212.344 200.559Z" fill="#1C362D"/>
<path d="M229.963 231.053L208.455 209.323C206.32 211.278 203.474 212.467 200.349 212.454C193.755 212.426 188.432 207.056 188.46 200.459C188.473 197.327 189.69 194.484 191.673 192.359L170.535 170.995L149.526 191.877C151.66 194.047 152.979 197.026 152.965 200.311C152.937 206.908 147.57 212.233 140.976 212.206C137.698 212.192 134.737 210.859 132.592 208.711L110.613 230.556L229.963 231.053Z" fill="#1C362D"/>
<path d="M152.966 200.313C152.98 197.028 151.667 194.049 149.527 191.879L132.593 208.713C134.743 210.861 137.705 212.194 140.977 212.208C147.571 212.235 152.938 206.91 152.966 200.313Z" fill="#24463B"/>
<path d="M200.355 212.455C203.48 212.468 206.326 211.28 208.462 209.324L191.679 192.366C189.701 194.485 188.479 197.334 188.466 200.466C188.438 207.058 193.761 212.428 200.355 212.455Z" fill="#24463B"/>
<path d="M331.904 311.903L250.823 311.903L332 231.427L331.904 311.903Z" fill="#24463B"/>
<path d="M301.46 341.995L220.38 341.995L301.557 261.519L301.46 341.995Z" fill="#24463B"/>
<path d="M276.281 286.502L276.281 341.606L221.142 286.437L276.281 286.502Z" fill="#1C362D"/>
<path d="M276.153 286.417L276.153 231.313L331.287 286.483L276.153 286.417Z" fill="#1C362D"/>
</svg>
