<svg width="396" height="370" viewBox="0 0 396 370" fill="none" xmlns="http://www.w3.org/2000/svg">
<path d="M131.24 368.546L131.24 368.816L-9.95511e-06 368.816L26.2204 277.927L42.5669 334.599L65.5421 254.943L90.843 342.651L107.31 285.588L131.24 368.546Z" fill="black"/>
<path d="M52.4409 368.816L-7.94579e-06 368.816L26.2204 277.927L42.5669 334.599L52.4409 368.816Z" fill="#24463B"/>
<path d="M131.24 368.546L131.24 368.817L83.2949 368.817L90.8431 342.652L107.31 285.589L131.24 368.546Z" fill="#24463B"/>
<path d="M98.3972 368.816L32.6929 368.816L42.5668 334.599L65.542 254.943L90.843 342.651L98.3972 368.816Z" fill="#1C362D"/>
<path d="M162.52 268.708C153.65 277.536 148.157 289.762 148.157 303.274C148.157 330.203 169.973 352.026 196.878 352.026C210.4 352.026 222.63 346.518 231.458 337.618L262.709 368.852L131.156 368.925L131.084 237.287L162.52 268.708Z" fill="#1C362D"/>
<path d="M196.878 254.518C223.789 254.518 245.599 276.347 245.599 303.27C245.599 316.668 240.196 328.803 231.452 337.613L162.514 268.704C171.331 259.942 183.47 254.518 196.878 254.518Z" fill="#1C362D"/>
<path d="M196.878 352.029C169.966 352.029 148.157 330.199 148.157 303.277C148.157 289.764 153.65 277.545 162.52 268.711L231.458 337.62C222.629 346.52 210.4 352.029 196.878 352.029Z" fill="#24463B"/>
<path d="M394.622 369.027L262.883 369.027L394.778 237.047L394.622 369.027Z" fill="#24463B"/>
<path d="M394.941 116.357L273.979 237.021L395.007 237.298L394.941 116.357ZM304.338 206.814L364.609 146.697L364.642 206.952L304.338 206.814Z" fill="#1C362D"/>
<path d="M304.358 151.908L304.385 212.163L364.657 152.046L304.358 151.908Z" fill="#1C362D"/>
<path d="M182.1 129.931C182.133 122.075 175.794 115.68 167.942 115.647C160.09 115.615 153.699 121.956 153.666 129.812C153.633 137.668 159.972 144.063 167.824 144.095C175.676 144.128 182.068 137.786 182.1 129.931Z" fill="#24463B"/>
<path d="M252.811 129.856C252.844 122 246.505 115.605 238.653 115.573C230.801 115.54 224.41 121.882 224.377 129.737C224.344 137.593 230.683 143.988 238.535 144.021C246.387 144.053 252.779 137.712 252.811 129.856Z" fill="#24463B"/>
<path d="M167.65 186.022C159.798 185.99 153.406 192.331 153.374 200.187C153.357 204.138 154.953 207.718 157.547 210.309L177.719 190.262C175.152 187.659 171.593 186.039 167.65 186.022Z" fill="#1F3930"/>
<path d="M252.516 200.599C252.549 192.743 246.211 186.349 238.358 186.316C234.234 186.299 230.518 188.044 227.909 190.834L247.894 211.029C250.717 208.442 252.499 204.732 252.516 200.599Z" fill="#1C362D"/>
<path d="M273.5 236.914L247.888 211.036C245.345 213.365 241.956 214.78 238.234 214.765C230.382 214.732 224.043 208.337 224.076 200.481C224.091 196.752 225.541 193.366 227.903 190.835L202.73 165.394L177.712 190.262C180.254 192.845 181.824 196.393 181.807 200.305C181.775 208.161 175.383 214.503 167.531 214.47C163.628 214.454 160.101 212.866 157.546 210.308L131.373 236.321L273.5 236.914Z" fill="#1C362D"/>
<path d="M181.808 200.306C181.824 196.394 180.26 192.846 177.712 190.262L157.546 210.309C160.107 212.867 163.634 214.454 167.531 214.47C175.383 214.503 181.775 208.162 181.808 200.306Z" fill="#24463B"/>
<path d="M238.24 214.765C241.962 214.78 245.352 213.365 247.894 211.036L227.909 190.841C225.554 193.366 224.098 196.758 224.082 200.488C224.049 208.337 230.388 214.732 238.24 214.765Z" fill="#24463B"/>
<path d="M328.659 302.944L328.659 368.564L262.997 302.866L328.659 302.944Z" fill="#1C362D"/>
<path d="M328.503 302.842L328.503 237.222L394.16 302.92L328.503 302.842Z" fill="#1C362D"/>
<path d="M304.27 117.008L304.27 102.1L321.014 87.5998L349.527 62.9052L349.677 63.0338L349.677 77.941L349.527 77.8124L304.27 117.008Z" fill="#24463B"/>
<path d="M304.27 86.4503L304.27 71.5431L321.014 57.0425L349.527 32.3479L349.677 32.4765L349.677 47.3837L349.527 47.2551L304.27 86.4503Z" fill="#24463B"/>
<path d="M304.27 54.1024L304.27 39.1952L321.014 24.6946L349.527 3.05045e-05L349.677 0.128647L349.677 15.0358L349.527 14.9072L304.27 54.1024Z" fill="#24463B"/>
<path d="M394.536 116.881L349.598 77.964L349.598 63.0568L377.962 87.6228L394.602 102.036L394.606 102.036L394.764 102.173L395.005 102.376L395.005 117.014L394.764 116.84L394.536 116.881Z" fill="#1C362D"/>
<path d="M394.536 86.324L349.598 47.4067L349.598 32.4995L377.962 57.0655L394.602 71.479L394.606 71.479L394.764 71.6159L395.005 71.8192L395.005 86.4567L394.764 86.2825L394.536 86.324Z" fill="#1C362D"/>
<path d="M394.536 53.9761L349.598 15.0588L349.598 0.151642L377.962 24.7176L394.602 39.1311L394.606 39.1311L394.764 39.268L395.005 39.4713L395.005 54.1088L394.764 53.9346L394.536 53.9761Z" fill="#1C362D"/>
</svg>
