<svg width="76" height="130" viewBox="0 0 76 130" fill="none" xmlns="http://www.w3.org/2000/svg">
<path d="M20.588 71.1042L20.5161 31.2795C20.4376 30.6589 19.8838 25.6433 23.3757 22.5719C24.4513 21.6257 25.6095 21.13 26.5215 20.8589C27.9779 20.6967 30.2104 20.702 31.8838 22.0722C33.9672 23.78 34.119 26.7357 34.1709 28.1391C35.1854 55.2453 35.6926 68.7984 35.5288 70.8902L20.588 71.1042Z" stroke="#EF767A" stroke-opacity="0.5" stroke-width="3.01589" stroke-miterlimit="10"/>
<path d="M38.2021 71.0908L37.4873 13.9227C37.434 13.629 36.3943 7.28302 40.7049 3.85953C42.2372 2.6435 43.8986 2.22885 44.9943 2.07469C46.665 1.8966 49.0839 1.93514 51.0715 3.35983C54.212 5.61115 54.5262 10.0673 54.646 12.2096C55.088 20.052 55.474 41.7784 55.3609 71.019L38.2021 71.0908Z" stroke="#EF767A" stroke-opacity="0.5" stroke-width="3.01589" stroke-miterlimit="10"/>
<path d="M57.8516 71.1752C57.8516 52.9999 57.8516 34.8232 57.8516 16.6478C57.8809 16.1282 58.1218 12.8124 60.8549 10.7949C63.8423 8.59015 67.9 9.34501 70.1392 11.0647C73.1026 13.3413 73.3129 17.6273 73.3662 19.573C73.5086 24.7826 73.7948 83.7356 73.7948 83.7356C73.7948 83.7356 68.5044 74.4578 57.8516 71.1752Z" stroke="#EF767A" stroke-opacity="0.5" stroke-width="3.01589" stroke-miterlimit="10"/>
<path d="M3.09618 95.1296C3.34379 95.3968 7.08999 99.3146 12.455 98.3378C16.9094 97.5271 19.0821 93.9628 19.4002 93.4219C21.5502 94.8864 23.5312 95.8712 25.13 96.5424C28.8083 98.0866 31.9514 98.5983 35.7575 99.195C38.3242 99.5964 40.5301 99.8064 42.2169 99.9233C41.5818 100.153 33.6555 103.193 31.5507 111.759C29.5166 120.035 34.6912 126.235 35.1971 126.818C32.2017 127.1 24.262 127.43 16.6086 122.536C2.75404 113.677 3.06156 96.1583 3.09618 95.1296Z" stroke="#EF767A" stroke-opacity="0.5" stroke-width="3.01589" stroke-miterlimit="10"/>
<path d="M72.3826 91.3362C65.7036 95.2474 59.9885 97.4668 56.0825 98.7586C48.0496 101.414 42.3398 101.907 38.0997 107.102C35.5623 110.211 35.0897 113.118 34.9912 113.819C34.3415 118.436 36.2506 124.238 40.5679 126.523C45.5934 129.182 51.4683 125.797 55.3942 123.535C64.6372 118.21 68.3435 109.307 69.5936 106.181C72.0085 100.147 72.4012 94.7358 72.3826 91.3362Z" stroke="#EF767A" stroke-opacity="0.5" stroke-width="3.01589" stroke-miterlimit="10"/>
<path d="M2.18934 76.3398C2.18934 76.3398 1.23082 86.807 3.62711 91.8505C6.02339 96.8941 13.4971 96.514 17.0423 91.4705C17.041 91.4705 5.73451 85.9511 2.18934 76.3398Z" stroke="#EF767A" stroke-opacity="0.5" stroke-width="3.01589" stroke-miterlimit="10"/>
<path d="M4.86523 74.2324C12.954 74.4172 19.5012 74.3627 23.8797 74.2843C32.5436 74.1288 41.2102 74.3906 49.8741 74.3361C55.1766 74.3029 57.6793 74.2563 60.8664 75.6358C66.6747 78.1503 69.911 83.3002 71.5978 86.7649C67.6173 89.9744 63.8618 91.9253 61.1273 93.1095C59.4166 93.8497 56.5424 95.0737 52.5313 95.814C48.9129 96.4811 46.1159 96.432 44.0498 96.3841C38.8845 96.2645 34.707 95.3661 32.111 94.6711C27.2772 93.3753 17.1102 90.6508 9.60721 81.6695C7.16434 78.747 5.68796 75.9801 4.86523 74.2324Z" stroke="#EF767A" stroke-opacity="0.5" stroke-width="3.01589" stroke-miterlimit="10"/>
<path d="M2.7813 71.0176L18.3052 71.1133C18.3052 71.1133 17.1457 63.8809 9.91956 63.8809C2.69344 63.8809 2.7813 71.0176 2.7813 71.0176Z" stroke="#EF767A" stroke-opacity="0.5" stroke-width="3.01589" stroke-miterlimit="10"/>
</svg>
