<svg width="448" height="308" viewBox="0 0 448 308" fill="none" xmlns="http://www.w3.org/2000/svg">
<path d="M2 130V257L57.5 257.5C57.5 276.5 71.5 306.5 106 306.5C139.5 306.5 153.5 272.167 152.5 257.5H295.5C295.167 242.167 308 211 341.5 211C379.102 211 389.833 241.833 390.5 257.5H446V130.5L224 2L2 130Z" fill="#213C33" stroke="#EF767A" stroke-width="3"/>
<path d="M117.713 110.168C118.588 109.4 119.607 108.813 120.769 108.408C121.943 107.992 123.26 107.784 124.721 107.784C125.916 107.784 126.993 107.933 127.953 108.232C128.913 108.52 129.729 108.925 130.401 109.448C131.073 109.971 131.591 110.595 131.953 111.32C132.316 112.045 132.497 112.84 132.497 113.704C132.497 114.835 132.22 115.837 131.665 116.712C131.121 117.576 130.337 118.264 129.313 118.776C129.889 119.032 130.412 119.336 130.881 119.688C131.351 120.04 131.751 120.44 132.081 120.888C132.423 121.325 132.684 121.805 132.865 122.328C133.057 122.84 133.153 123.384 133.153 123.96C133.153 124.973 132.967 125.923 132.593 126.808C132.22 127.683 131.671 128.451 130.945 129.112C130.231 129.763 129.351 130.28 128.305 130.664C127.26 131.037 126.065 131.224 124.721 131.224C123.079 131.224 121.585 130.952 120.241 130.408C118.897 129.864 117.756 129.133 116.817 128.216L117.793 126.584C117.879 126.456 117.991 126.349 118.129 126.264C118.268 126.179 118.417 126.136 118.577 126.136C118.812 126.136 119.089 126.253 119.409 126.488C119.729 126.723 120.129 126.984 120.609 127.272C121.089 127.549 121.665 127.805 122.337 128.04C123.02 128.275 123.847 128.392 124.817 128.392C126.449 128.392 127.713 128.024 128.609 127.288C129.505 126.541 129.953 125.485 129.953 124.12C129.953 123.544 129.836 123.016 129.601 122.536C129.377 122.056 129.052 121.645 128.625 121.304C128.199 120.963 127.681 120.701 127.073 120.52C126.465 120.328 125.777 120.237 125.009 120.248H121.841V117.448H124.833C125.495 117.448 126.097 117.373 126.641 117.224C127.196 117.064 127.671 116.84 128.065 116.552C128.46 116.253 128.764 115.891 128.977 115.464C129.201 115.027 129.313 114.531 129.313 113.976C129.313 113.475 129.207 113.016 128.993 112.6C128.791 112.184 128.492 111.832 128.097 111.544C127.713 111.245 127.233 111.016 126.657 110.856C126.092 110.685 125.447 110.6 124.721 110.6C123.879 110.6 123.159 110.691 122.561 110.872C121.975 111.043 121.473 111.24 121.057 111.464C120.641 111.677 120.295 111.875 120.017 112.056C119.751 112.227 119.521 112.312 119.329 112.312C119.148 112.312 118.999 112.269 118.881 112.184C118.764 112.099 118.652 111.965 118.545 111.784L117.713 110.168ZM144.652 123.784C143.383 123.827 142.305 123.928 141.42 124.088C140.535 124.237 139.815 124.44 139.26 124.696C138.705 124.952 138.305 125.256 138.06 125.608C137.815 125.949 137.692 126.333 137.692 126.76C137.692 127.165 137.756 127.517 137.884 127.816C138.023 128.104 138.204 128.344 138.428 128.536C138.663 128.717 138.935 128.851 139.244 128.936C139.553 129.021 139.889 129.064 140.252 129.064C140.732 129.064 141.169 129.016 141.564 128.92C141.969 128.824 142.348 128.691 142.7 128.52C143.052 128.339 143.388 128.12 143.708 127.864C144.028 127.608 144.343 127.315 144.652 126.984V123.784ZM135.5 117.016C136.407 116.152 137.388 115.507 138.444 115.08C139.511 114.653 140.679 114.44 141.948 114.44C142.876 114.44 143.697 114.595 144.412 114.904C145.127 115.203 145.729 115.624 146.22 116.168C146.711 116.712 147.079 117.363 147.324 118.12C147.58 118.877 147.708 119.715 147.708 120.632V131H146.316C146.007 131 145.772 130.952 145.612 130.856C145.452 130.749 145.324 130.557 145.228 130.28L144.892 128.856C144.476 129.24 144.065 129.581 143.66 129.88C143.255 130.168 142.828 130.419 142.38 130.632C141.943 130.835 141.473 130.989 140.972 131.096C140.471 131.203 139.916 131.256 139.308 131.256C138.668 131.256 138.065 131.171 137.5 131C136.945 130.819 136.46 130.547 136.044 130.184C135.628 129.821 135.297 129.368 135.052 128.824C134.817 128.28 134.7 127.645 134.7 126.92C134.7 126.28 134.871 125.667 135.212 125.08C135.564 124.483 136.129 123.949 136.908 123.48C137.697 123.011 138.721 122.627 139.98 122.328C141.249 122.029 142.807 121.859 144.652 121.816V120.632C144.652 119.405 144.391 118.488 143.868 117.88C143.345 117.272 142.577 116.968 141.564 116.968C140.881 116.968 140.305 117.053 139.836 117.224C139.377 117.395 138.977 117.587 138.636 117.8C138.305 118.003 138.012 118.189 137.756 118.36C137.511 118.531 137.255 118.616 136.988 118.616C136.775 118.616 136.588 118.557 136.428 118.44C136.279 118.323 136.156 118.184 136.06 118.024L135.5 117.016ZM154.445 114.744V132.024C154.445 132.696 154.354 133.32 154.173 133.896C154.002 134.483 153.725 134.989 153.341 135.416C152.967 135.853 152.477 136.195 151.869 136.44C151.271 136.685 150.546 136.808 149.693 136.808C149.341 136.808 149.021 136.781 148.733 136.728C148.434 136.675 148.135 136.6 147.837 136.504L147.965 134.808C148.007 134.605 148.103 134.493 148.253 134.472C148.391 134.451 148.663 134.44 149.069 134.44C149.89 134.44 150.471 134.253 150.813 133.88C151.154 133.507 151.325 132.888 151.325 132.024V114.744H154.445ZM155.037 109.72C155.037 110.008 154.978 110.285 154.861 110.552C154.743 110.808 154.583 111.037 154.381 111.24C154.178 111.432 153.943 111.587 153.677 111.704C153.421 111.811 153.143 111.864 152.845 111.864C152.557 111.864 152.285 111.811 152.029 111.704C151.773 111.587 151.543 111.432 151.341 111.24C151.149 111.037 150.994 110.808 150.877 110.552C150.77 110.285 150.717 110.008 150.717 109.72C150.717 109.421 150.77 109.144 150.877 108.888C150.994 108.621 151.149 108.392 151.341 108.2C151.543 107.997 151.773 107.843 152.029 107.736C152.285 107.619 152.557 107.56 152.845 107.56C153.143 107.56 153.421 107.619 153.677 107.736C153.943 107.843 154.178 107.997 154.381 108.2C154.583 108.392 154.743 108.621 154.861 108.888C154.978 109.144 155.037 109.421 155.037 109.72ZM166.994 123.784C165.725 123.827 164.647 123.928 163.762 124.088C162.877 124.237 162.157 124.44 161.602 124.696C161.047 124.952 160.647 125.256 160.402 125.608C160.157 125.949 160.034 126.333 160.034 126.76C160.034 127.165 160.098 127.517 160.226 127.816C160.365 128.104 160.546 128.344 160.77 128.536C161.005 128.717 161.277 128.851 161.586 128.936C161.895 129.021 162.231 129.064 162.594 129.064C163.074 129.064 163.511 129.016 163.906 128.92C164.311 128.824 164.69 128.691 165.042 128.52C165.394 128.339 165.73 128.12 166.05 127.864C166.37 127.608 166.685 127.315 166.994 126.984V123.784ZM157.842 117.016C158.749 116.152 159.73 115.507 160.786 115.08C161.853 114.653 163.021 114.44 164.29 114.44C165.218 114.44 166.039 114.595 166.754 114.904C167.469 115.203 168.071 115.624 168.562 116.168C169.053 116.712 169.421 117.363 169.666 118.12C169.922 118.877 170.05 119.715 170.05 120.632V131H168.658C168.349 131 168.114 130.952 167.954 130.856C167.794 130.749 167.666 130.557 167.57 130.28L167.234 128.856C166.818 129.24 166.407 129.581 166.002 129.88C165.597 130.168 165.17 130.419 164.722 130.632C164.285 130.835 163.815 130.989 163.314 131.096C162.813 131.203 162.258 131.256 161.65 131.256C161.01 131.256 160.407 131.171 159.842 131C159.287 130.819 158.802 130.547 158.386 130.184C157.97 129.821 157.639 129.368 157.394 128.824C157.159 128.28 157.042 127.645 157.042 126.92C157.042 126.28 157.213 125.667 157.554 125.08C157.906 124.483 158.471 123.949 159.25 123.48C160.039 123.011 161.063 122.627 162.322 122.328C163.591 122.029 165.149 121.859 166.994 121.816V120.632C166.994 119.405 166.733 118.488 166.21 117.88C165.687 117.272 164.919 116.968 163.906 116.968C163.223 116.968 162.647 117.053 162.178 117.224C161.719 117.395 161.319 117.587 160.978 117.8C160.647 118.003 160.354 118.189 160.098 118.36C159.853 118.531 159.597 118.616 159.33 118.616C159.117 118.616 158.93 118.557 158.77 118.44C158.621 118.323 158.498 118.184 158.402 118.024L157.842 117.016ZM183.347 115.592C183.507 115.347 183.72 115.144 183.987 114.984C184.253 114.824 184.536 114.744 184.835 114.744H187.283L183.171 120.888C182.915 121.293 182.648 121.624 182.371 121.88C182.093 122.136 181.752 122.333 181.347 122.472C181.859 122.621 182.291 122.845 182.643 123.144C182.995 123.432 183.309 123.811 183.587 124.28L187.731 131H185.571C185.005 131 184.568 130.909 184.259 130.728C183.96 130.536 183.704 130.264 183.491 129.912L180.515 125C180.269 124.595 179.96 124.291 179.587 124.088C179.224 123.885 178.803 123.784 178.323 123.784H176.643V131.016H173.523V114.744H176.643V121.688H178.115C178.563 121.688 178.941 121.597 179.251 121.416C179.571 121.235 179.843 120.968 180.067 120.616L183.347 115.592ZM203.296 114.744V131H200.16V123.512H192.72V131H189.6V114.744H192.72V121.144H200.16V114.744H203.296ZM221.167 114.744L212.143 135.72C212.047 135.955 211.919 136.136 211.759 136.264C211.599 136.392 211.364 136.456 211.055 136.456H208.735L211.711 129.976L205.039 114.744H207.759C208.025 114.744 208.233 114.808 208.383 114.936C208.532 115.064 208.639 115.208 208.703 115.368L212.831 125.128C212.916 125.373 212.996 125.624 213.071 125.88C213.156 126.125 213.225 126.371 213.279 126.616C213.353 126.36 213.433 126.109 213.519 125.864C213.604 125.608 213.695 125.357 213.791 125.112L217.775 115.368C217.849 115.187 217.967 115.037 218.127 114.92C218.287 114.803 218.468 114.744 218.671 114.744H221.167ZM229.184 128.808C230.187 128.808 230.982 128.573 231.568 128.104C232.155 127.624 232.448 126.979 232.448 126.168C232.448 125.816 232.395 125.491 232.288 125.192C232.182 124.883 232 124.616 231.744 124.392C231.488 124.168 231.152 123.997 230.736 123.88C230.32 123.752 229.808 123.688 229.2 123.688H225.824V128.808H229.184ZM225.824 116.824V121.704H228.816C229.264 121.704 229.675 121.64 230.048 121.512C230.432 121.384 230.758 121.208 231.024 120.984C231.302 120.749 231.515 120.472 231.664 120.152C231.824 119.821 231.904 119.464 231.904 119.08C231.904 118.792 231.851 118.515 231.744 118.248C231.648 117.981 231.478 117.741 231.232 117.528C230.998 117.315 230.683 117.144 230.288 117.016C229.894 116.888 229.403 116.824 228.816 116.824H225.824ZM228.912 114.744C229.915 114.744 230.779 114.845 231.504 115.048C232.23 115.24 232.827 115.512 233.296 115.864C233.766 116.216 234.107 116.627 234.32 117.096C234.544 117.565 234.656 118.072 234.656 118.616C234.656 118.968 234.608 119.336 234.512 119.72C234.416 120.104 234.251 120.472 234.016 120.824C233.782 121.165 233.462 121.48 233.056 121.768C232.662 122.056 232.155 122.28 231.536 122.44C232.731 122.653 233.659 123.08 234.32 123.72C234.992 124.36 235.328 125.208 235.328 126.264C235.328 127.064 235.163 127.763 234.832 128.36C234.512 128.947 234.075 129.437 233.52 129.832C232.966 130.227 232.315 130.52 231.568 130.712C230.822 130.904 230.032 131 229.2 131H222.848V114.744H228.912ZM246.818 123.784C245.548 123.827 244.471 123.928 243.586 124.088C242.7 124.237 241.98 124.44 241.426 124.696C240.871 124.952 240.471 125.256 240.226 125.608C239.98 125.949 239.858 126.333 239.858 126.76C239.858 127.165 239.922 127.517 240.05 127.816C240.188 128.104 240.37 128.344 240.594 128.536C240.828 128.717 241.1 128.851 241.41 128.936C241.719 129.021 242.055 129.064 242.418 129.064C242.898 129.064 243.335 129.016 243.73 128.92C244.135 128.824 244.514 128.691 244.866 128.52C245.218 128.339 245.554 128.12 245.874 127.864C246.194 127.608 246.508 127.315 246.818 126.984V123.784ZM237.666 117.016C238.572 116.152 239.554 115.507 240.61 115.08C241.676 114.653 242.844 114.44 244.114 114.44C245.042 114.44 245.863 114.595 246.578 114.904C247.292 115.203 247.895 115.624 248.386 116.168C248.876 116.712 249.244 117.363 249.49 118.12C249.746 118.877 249.874 119.715 249.874 120.632V131H248.482C248.172 131 247.938 130.952 247.778 130.856C247.618 130.749 247.49 130.557 247.394 130.28L247.058 128.856C246.642 129.24 246.231 129.581 245.826 129.88C245.42 130.168 244.994 130.419 244.546 130.632C244.108 130.835 243.639 130.989 243.138 131.096C242.636 131.203 242.082 131.256 241.474 131.256C240.834 131.256 240.231 131.171 239.666 131C239.111 130.819 238.626 130.547 238.21 130.184C237.794 129.821 237.463 129.368 237.218 128.824C236.983 128.28 236.866 127.645 236.866 126.92C236.866 126.28 237.036 125.667 237.378 125.08C237.73 124.483 238.295 123.949 239.074 123.48C239.863 123.011 240.887 122.627 242.146 122.328C243.415 122.029 244.972 121.859 246.818 121.816V120.632C246.818 119.405 246.556 118.488 246.034 117.88C245.511 117.272 244.743 116.968 243.73 116.968C243.047 116.968 242.471 117.053 242.002 117.224C241.543 117.395 241.143 117.587 240.802 117.8C240.471 118.003 240.178 118.189 239.922 118.36C239.676 118.531 239.42 118.616 239.154 118.616C238.94 118.616 238.754 118.557 238.594 118.44C238.444 118.323 238.322 118.184 238.226 118.024L237.666 117.016ZM270.387 128.712C271.464 128.712 272.269 128.456 272.803 127.944C273.336 127.421 273.603 126.76 273.603 125.96C273.603 125.597 273.544 125.256 273.427 124.936C273.309 124.605 273.123 124.323 272.867 124.088C272.611 123.843 272.275 123.651 271.859 123.512C271.443 123.363 270.941 123.288 270.355 123.288H267.043V128.712H270.387ZM270.339 121.016C271.469 121.016 272.419 121.155 273.187 121.432C273.955 121.699 274.573 122.061 275.043 122.52C275.523 122.968 275.864 123.491 276.067 124.088C276.28 124.675 276.387 125.288 276.387 125.928C276.387 126.664 276.253 127.347 275.987 127.976C275.731 128.595 275.347 129.128 274.835 129.576C274.323 130.024 273.693 130.376 272.947 130.632C272.211 130.877 271.363 131 270.403 131H263.907V123.512H256.467V131H253.347V114.744H256.467V121.144H263.907V114.744H267.043V121.016H270.339ZM289.504 121.064C289.504 120.445 289.414 119.875 289.232 119.352C289.062 118.829 288.806 118.376 288.464 117.992C288.123 117.608 287.707 117.309 287.216 117.096C286.726 116.883 286.16 116.776 285.52 116.776C284.208 116.776 283.174 117.155 282.416 117.912C281.67 118.669 281.195 119.72 280.992 121.064H289.504ZM292.08 128.68C291.696 129.128 291.254 129.517 290.752 129.848C290.251 130.168 289.718 130.429 289.152 130.632C288.587 130.835 288 130.984 287.392 131.08C286.795 131.176 286.203 131.224 285.616 131.224C284.496 131.224 283.456 131.037 282.496 130.664C281.547 130.28 280.72 129.725 280.016 129C279.323 128.264 278.779 127.357 278.384 126.28C278 125.192 277.808 123.944 277.808 122.536C277.808 121.405 277.984 120.355 278.336 119.384C278.688 118.403 279.19 117.549 279.84 116.824C280.502 116.099 281.307 115.528 282.256 115.112C283.206 114.696 284.272 114.488 285.456 114.488C286.448 114.488 287.36 114.653 288.192 114.984C289.035 115.304 289.76 115.773 290.368 116.392C290.976 117.011 291.451 117.773 291.792 118.68C292.144 119.587 292.32 120.621 292.32 121.784C292.32 122.264 292.267 122.589 292.16 122.76C292.054 122.92 291.856 123 291.568 123H280.912C280.944 123.971 281.083 124.819 281.328 125.544C281.574 126.259 281.91 126.856 282.336 127.336C282.774 127.816 283.291 128.173 283.888 128.408C284.486 128.643 285.152 128.76 285.888 128.76C286.582 128.76 287.179 128.68 287.68 128.52C288.192 128.36 288.63 128.189 288.992 128.008C289.366 127.816 289.675 127.64 289.92 127.48C290.176 127.32 290.4 127.24 290.592 127.24C290.848 127.24 291.046 127.336 291.184 127.528L292.08 128.68ZM316.056 114.744V131H312.92V123.512H305.48V131H302.36V114.744H305.48V121.144H312.92V114.744H316.056ZM328.454 123.784C327.185 123.827 326.107 123.928 325.222 124.088C324.337 124.237 323.617 124.44 323.062 124.696C322.507 124.952 322.107 125.256 321.862 125.608C321.617 125.949 321.494 126.333 321.494 126.76C321.494 127.165 321.558 127.517 321.686 127.816C321.825 128.104 322.006 128.344 322.23 128.536C322.465 128.717 322.737 128.851 323.046 128.936C323.355 129.021 323.691 129.064 324.054 129.064C324.534 129.064 324.971 129.016 325.366 128.92C325.771 128.824 326.15 128.691 326.502 128.52C326.854 128.339 327.19 128.12 327.51 127.864C327.83 127.608 328.145 127.315 328.454 126.984V123.784ZM319.302 117.016C320.209 116.152 321.19 115.507 322.246 115.08C323.313 114.653 324.481 114.44 325.75 114.44C326.678 114.44 327.499 114.595 328.214 114.904C328.929 115.203 329.531 115.624 330.022 116.168C330.513 116.712 330.881 117.363 331.126 118.12C331.382 118.877 331.51 119.715 331.51 120.632V131H330.118C329.809 131 329.574 130.952 329.414 130.856C329.254 130.749 329.126 130.557 329.03 130.28L328.694 128.856C328.278 129.24 327.867 129.581 327.462 129.88C327.057 130.168 326.63 130.419 326.182 130.632C325.745 130.835 325.275 130.989 324.774 131.096C324.273 131.203 323.718 131.256 323.11 131.256C322.47 131.256 321.867 131.171 321.302 131C320.747 130.819 320.262 130.547 319.846 130.184C319.43 129.821 319.099 129.368 318.854 128.824C318.619 128.28 318.502 127.645 318.502 126.92C318.502 126.28 318.673 125.667 319.014 125.08C319.366 124.483 319.931 123.949 320.71 123.48C321.499 123.011 322.523 122.627 323.782 122.328C325.051 122.029 326.609 121.859 328.454 121.816V120.632C328.454 119.405 328.193 118.488 327.67 117.88C327.147 117.272 326.379 116.968 325.366 116.968C324.683 116.968 324.107 117.053 323.638 117.224C323.179 117.395 322.779 117.587 322.438 117.8C322.107 118.003 321.814 118.189 321.558 118.36C321.313 118.531 321.057 118.616 320.79 118.616C320.577 118.616 320.39 118.557 320.23 118.44C320.081 118.323 319.958 118.184 319.862 118.024L319.302 117.016ZM78.139 163.784C76.8697 163.827 75.7923 163.928 74.907 164.088C74.0217 164.237 73.3017 164.44 72.747 164.696C72.1923 164.952 71.7923 165.256 71.547 165.608C71.3017 165.949 71.179 166.333 71.179 166.76C71.179 167.165 71.243 167.517 71.371 167.816C71.5097 168.104 71.691 168.344 71.915 168.536C72.1497 168.717 72.4217 168.851 72.731 168.936C73.0403 169.021 73.3763 169.064 73.739 169.064C74.219 169.064 74.6563 169.016 75.051 168.92C75.4563 168.824 75.835 168.691 76.187 168.52C76.539 168.339 76.875 168.12 77.195 167.864C77.515 167.608 77.8297 167.315 78.139 166.984V163.784ZM68.987 157.016C69.8937 156.152 70.875 155.507 71.931 155.08C72.9977 154.653 74.1657 154.44 75.435 154.44C76.363 154.44 77.1843 154.595 77.899 154.904C78.6137 155.203 79.2163 155.624 79.707 156.168C80.1977 156.712 80.5657 157.363 80.811 158.12C81.067 158.877 81.195 159.715 81.195 160.632V171H79.803C79.4937 171 79.259 170.952 79.099 170.856C78.939 170.749 78.811 170.557 78.715 170.28L78.379 168.856C77.963 169.24 77.5523 169.581 77.147 169.88C76.7417 170.168 76.315 170.419 75.867 170.632C75.4297 170.835 74.9603 170.989 74.459 171.096C73.9577 171.203 73.403 171.256 72.795 171.256C72.155 171.256 71.5523 171.171 70.987 171C70.4323 170.819 69.947 170.547 69.531 170.184C69.115 169.821 68.7843 169.368 68.539 168.824C68.3043 168.28 68.187 167.645 68.187 166.92C68.187 166.28 68.3577 165.667 68.699 165.08C69.051 164.483 69.6163 163.949 70.395 163.48C71.1843 163.011 72.2083 162.627 73.467 162.328C74.7363 162.029 76.2937 161.859 78.139 161.816V160.632C78.139 159.405 77.8777 158.488 77.355 157.88C76.8323 157.272 76.0643 156.968 75.051 156.968C74.3683 156.968 73.7923 157.053 73.323 157.224C72.8643 157.395 72.4643 157.587 72.123 157.8C71.7923 158.003 71.499 158.189 71.243 158.36C70.9977 158.531 70.7417 158.616 70.475 158.616C70.2617 158.616 70.075 158.557 69.915 158.44C69.7657 158.323 69.643 158.184 69.547 158.024L68.987 157.016ZM91.0037 168.808C92.0064 168.808 92.8011 168.573 93.3877 168.104C93.9744 167.624 94.2677 166.979 94.2677 166.168C94.2677 165.816 94.2144 165.491 94.1077 165.192C94.0011 164.883 93.8197 164.616 93.5637 164.392C93.3077 164.168 92.9717 163.997 92.5557 163.88C92.1397 163.752 91.6277 163.688 91.0197 163.688H87.6437V168.808H91.0037ZM87.6437 156.824V161.704H90.6357C91.0837 161.704 91.4944 161.64 91.8677 161.512C92.2517 161.384 92.5771 161.208 92.8437 160.984C93.1211 160.749 93.3344 160.472 93.4837 160.152C93.6437 159.821 93.7237 159.464 93.7237 159.08C93.7237 158.792 93.6704 158.515 93.5637 158.248C93.4677 157.981 93.2971 157.741 93.0517 157.528C92.8171 157.315 92.5024 157.144 92.1077 157.016C91.7131 156.888 91.2224 156.824 90.6357 156.824H87.6437ZM90.7317 154.744C91.7344 154.744 92.5984 154.845 93.3237 155.048C94.0491 155.24 94.6464 155.512 95.1157 155.864C95.5851 156.216 95.9264 156.627 96.1397 157.096C96.3637 157.565 96.4757 158.072 96.4757 158.616C96.4757 158.968 96.4277 159.336 96.3317 159.72C96.2357 160.104 96.0704 160.472 95.8357 160.824C95.6011 161.165 95.2811 161.48 94.8757 161.768C94.4811 162.056 93.9744 162.28 93.3557 162.44C94.5504 162.653 95.4784 163.08 96.1397 163.72C96.8117 164.36 97.1477 165.208 97.1477 166.264C97.1477 167.064 96.9824 167.763 96.6517 168.36C96.3317 168.947 95.8944 169.437 95.3397 169.832C94.7851 170.227 94.1344 170.52 93.3877 170.712C92.6411 170.904 91.8517 171 91.0197 171H84.6677V154.744H90.7317ZM113.298 157.112H107.17V171H104.034V157.112H97.9065V154.744H113.298V157.112ZM121.531 154.488C122.726 154.488 123.803 154.685 124.763 155.08C125.734 155.464 126.555 156.024 127.227 156.76C127.91 157.485 128.433 158.365 128.795 159.4C129.158 160.424 129.34 161.576 129.34 162.856C129.34 164.136 129.158 165.293 128.795 166.328C128.433 167.363 127.91 168.243 127.227 168.968C126.555 169.693 125.734 170.253 124.763 170.648C123.803 171.032 122.726 171.224 121.531 171.224C120.326 171.224 119.238 171.032 118.267 170.648C117.307 170.253 116.486 169.693 115.803 168.968C115.121 168.243 114.593 167.363 114.219 166.328C113.857 165.293 113.675 164.136 113.675 162.856C113.675 161.576 113.857 160.424 114.219 159.4C114.593 158.365 115.121 157.485 115.803 156.76C116.486 156.024 117.307 155.464 118.267 155.08C119.238 154.685 120.326 154.488 121.531 154.488ZM121.531 168.792C123.067 168.792 124.214 168.275 124.971 167.24C125.729 166.205 126.108 164.749 126.108 162.872C126.108 160.995 125.729 159.539 124.971 158.504C124.214 157.459 123.067 156.936 121.531 156.936C119.974 156.936 118.811 157.459 118.043 158.504C117.286 159.539 116.907 160.995 116.907 162.872C116.907 164.749 117.286 166.205 118.043 167.24C118.811 168.275 119.974 168.792 121.531 168.792ZM145.814 154.744V171H142.678V163.512H135.238V171H132.118V154.744H135.238V161.144H142.678V154.744H145.814ZM156.405 154.488C157.599 154.488 158.677 154.685 159.637 155.08C160.607 155.464 161.429 156.024 162.101 156.76C162.783 157.485 163.306 158.365 163.669 159.4C164.031 160.424 164.213 161.576 164.213 162.856C164.213 164.136 164.031 165.293 163.669 166.328C163.306 167.363 162.783 168.243 162.101 168.968C161.429 169.693 160.607 170.253 159.637 170.648C158.677 171.032 157.599 171.224 156.405 171.224C155.199 171.224 154.111 171.032 153.141 170.648C152.181 170.253 151.359 169.693 150.677 168.968C149.994 168.243 149.466 167.363 149.093 166.328C148.73 165.293 148.549 164.136 148.549 162.856C148.549 161.576 148.73 160.424 149.093 159.4C149.466 158.365 149.994 157.485 150.677 156.76C151.359 156.024 152.181 155.464 153.141 155.08C154.111 154.685 155.199 154.488 156.405 154.488ZM156.405 168.792C157.941 168.792 159.087 168.275 159.845 167.24C160.602 166.205 160.981 164.749 160.981 162.872C160.981 160.995 160.602 159.539 159.845 158.504C159.087 157.459 157.941 156.936 156.405 156.936C154.847 156.936 153.685 157.459 152.917 158.504C152.159 159.539 151.781 160.995 151.781 162.872C151.781 164.749 152.159 166.205 152.917 167.24C153.685 168.275 154.847 168.792 156.405 168.792ZM185.28 154.696V171H182.464V160.664C182.464 160.344 182.48 159.981 182.511 159.576C182.554 159.171 182.613 158.797 182.688 158.456L177.248 168.088C177.152 168.269 177.029 168.413 176.88 168.52C176.73 168.616 176.554 168.664 176.352 168.664H176C175.808 168.664 175.632 168.616 175.472 168.52C175.322 168.413 175.2 168.269 175.104 168.088L169.583 158.424C169.647 158.765 169.701 159.144 169.743 159.56C169.786 159.965 169.807 160.333 169.807 160.664V171H166.991V154.696H169.519C169.733 154.696 169.946 154.744 170.159 154.84C170.373 154.936 170.554 155.123 170.703 155.4L175.455 163.432C175.594 163.688 175.722 163.96 175.84 164.248C175.957 164.536 176.069 164.824 176.175 165.112C176.282 164.824 176.389 164.536 176.495 164.248C176.613 163.96 176.741 163.688 176.88 163.432L181.568 155.4C181.717 155.112 181.898 154.925 182.111 154.84C182.325 154.744 182.538 154.696 182.752 154.696H185.28ZM202.64 154.744V171H199.504V163.512H192.064V171H188.944V154.744H192.064V161.144H199.504V154.744H202.64ZM215.038 163.784C213.769 163.827 212.692 163.928 211.806 164.088C210.921 164.237 210.201 164.44 209.646 164.696C209.092 164.952 208.692 165.256 208.446 165.608C208.201 165.949 208.078 166.333 208.078 166.76C208.078 167.165 208.142 167.517 208.27 167.816C208.409 168.104 208.59 168.344 208.814 168.536C209.049 168.717 209.321 168.851 209.63 168.936C209.94 169.021 210.276 169.064 210.638 169.064C211.118 169.064 211.556 169.016 211.95 168.92C212.356 168.824 212.734 168.691 213.086 168.52C213.438 168.339 213.774 168.12 214.094 167.864C214.414 167.608 214.729 167.315 215.038 166.984V163.784ZM205.886 157.016C206.793 156.152 207.774 155.507 208.83 155.08C209.897 154.653 211.065 154.44 212.334 154.44C213.262 154.44 214.084 154.595 214.798 154.904C215.513 155.203 216.116 155.624 216.606 156.168C217.097 156.712 217.465 157.363 217.71 158.12C217.966 158.877 218.094 159.715 218.094 160.632V171H216.702C216.393 171 216.158 170.952 215.998 170.856C215.838 170.749 215.71 170.557 215.614 170.28L215.278 168.856C214.862 169.24 214.452 169.581 214.046 169.88C213.641 170.168 213.214 170.419 212.766 170.632C212.329 170.835 211.86 170.989 211.358 171.096C210.857 171.203 210.302 171.256 209.694 171.256C209.054 171.256 208.452 171.171 207.886 171C207.332 170.819 206.846 170.547 206.43 170.184C206.014 169.821 205.684 169.368 205.438 168.824C205.204 168.28 205.086 167.645 205.086 166.92C205.086 166.28 205.257 165.667 205.598 165.08C205.95 164.483 206.516 163.949 207.294 163.48C208.084 163.011 209.108 162.627 210.366 162.328C211.636 162.029 213.193 161.859 215.038 161.816V160.632C215.038 159.405 214.777 158.488 214.254 157.88C213.732 157.272 212.964 156.968 211.95 156.968C211.268 156.968 210.692 157.053 210.222 157.224C209.764 157.395 209.364 157.587 209.022 157.8C208.692 158.003 208.398 158.189 208.142 158.36C207.897 158.531 207.641 158.616 207.374 158.616C207.161 158.616 206.974 158.557 206.814 158.44C206.665 158.323 206.542 158.184 206.446 158.024L205.886 157.016ZM243.069 154.744V171H239.933V160.376C239.933 160.163 239.943 159.928 239.965 159.672C239.986 159.405 240.018 159.139 240.061 158.872C239.954 159.096 239.847 159.309 239.741 159.512C239.645 159.704 239.543 159.875 239.437 160.024L231.965 170.216C231.847 170.408 231.693 170.589 231.501 170.76C231.309 170.931 231.09 171.016 230.845 171.016H228.957V154.744H232.077V165.384C232.077 165.597 232.066 165.837 232.045 166.104C232.023 166.36 231.991 166.616 231.949 166.872C232.162 166.403 232.37 166.024 232.573 165.736L240.045 155.528C240.162 155.347 240.317 155.171 240.509 155C240.711 154.829 240.935 154.744 241.181 154.744H243.069ZM260.417 154.744V171H257.281V163.512H249.841V171H246.721V154.744H249.841V161.144H257.281V154.744H260.417ZM275.184 168.728V157.192H270.32C270.213 158.771 270.069 160.179 269.888 161.416C269.707 162.653 269.493 163.741 269.248 164.68C269.013 165.608 268.752 166.408 268.464 167.08C268.176 167.741 267.872 168.291 267.552 168.728H275.184ZM281.184 168.632V175.592C281.184 175.891 281.099 176.125 280.928 176.296C280.768 176.467 280.555 176.552 280.288 176.552H278.352V171H265.072V175.656C265.072 175.891 265.003 176.099 264.864 176.28C264.725 176.461 264.507 176.552 264.208 176.552H262.224V168.728H262.752C263.125 168.728 263.493 168.669 263.856 168.552C264.219 168.435 264.565 168.2 264.896 167.848C265.237 167.496 265.557 167 265.856 166.36C266.155 165.72 266.427 164.883 266.672 163.848C266.917 162.813 267.131 161.555 267.312 160.072C267.493 158.579 267.637 156.803 267.744 154.744H278.208V168.632H281.184ZM297.394 154.744V171H294.258V160.376C294.258 160.163 294.269 159.928 294.29 159.672C294.312 159.405 294.344 159.139 294.386 158.872C294.28 159.096 294.173 159.309 294.066 159.512C293.97 159.704 293.869 159.875 293.762 160.024L286.29 170.216C286.173 170.408 286.018 170.589 285.826 170.76C285.634 170.931 285.416 171.016 285.17 171.016H283.282V154.744H286.402V165.384C286.402 165.597 286.392 165.837 286.37 166.104C286.349 166.36 286.317 166.616 286.274 166.872C286.488 166.403 286.696 166.024 286.898 165.736L294.37 155.528C294.488 155.347 294.642 155.171 294.834 155C295.037 154.829 295.261 154.744 295.506 154.744H297.394ZM307.383 168.808C308.386 168.808 309.18 168.573 309.767 168.104C310.354 167.624 310.647 166.979 310.647 166.168C310.647 165.816 310.594 165.491 310.487 165.192C310.38 164.883 310.199 164.616 309.943 164.392C309.687 164.168 309.351 163.997 308.935 163.88C308.519 163.752 308.007 163.688 307.399 163.688H304.023V168.808H307.383ZM304.023 156.824V161.704H307.015C307.463 161.704 307.874 161.64 308.247 161.512C308.631 161.384 308.956 161.208 309.223 160.984C309.5 160.749 309.714 160.472 309.863 160.152C310.023 159.821 310.103 159.464 310.103 159.08C310.103 158.792 310.05 158.515 309.943 158.248C309.847 157.981 309.676 157.741 309.431 157.528C309.196 157.315 308.882 157.144 308.487 157.016C308.092 156.888 307.602 156.824 307.015 156.824H304.023ZM307.111 154.744C308.114 154.744 308.978 154.845 309.703 155.048C310.428 155.24 311.026 155.512 311.495 155.864C311.964 156.216 312.306 156.627 312.519 157.096C312.743 157.565 312.855 158.072 312.855 158.616C312.855 158.968 312.807 159.336 312.711 159.72C312.615 160.104 312.45 160.472 312.215 160.824C311.98 161.165 311.66 161.48 311.255 161.768C310.86 162.056 310.354 162.28 309.735 162.44C310.93 162.653 311.858 163.08 312.519 163.72C313.191 164.36 313.527 165.208 313.527 166.264C313.527 167.064 313.362 167.763 313.031 168.36C312.711 168.947 312.274 169.437 311.719 169.832C311.164 170.227 310.514 170.52 309.767 170.712C309.02 170.904 308.231 171 307.399 171H301.047V154.744H307.111ZM330.393 154.744V171H327.257V160.376C327.257 160.163 327.267 159.928 327.289 159.672C327.31 159.405 327.342 159.139 327.385 158.872C327.278 159.096 327.171 159.309 327.065 159.512C326.969 159.704 326.867 159.875 326.761 160.024L319.289 170.216C319.171 170.408 319.017 170.589 318.825 170.76C318.633 170.931 318.414 171.016 318.169 171.016H316.281V154.744H319.401V165.384C319.401 165.597 319.39 165.837 319.369 166.104C319.347 166.36 319.315 166.616 319.273 166.872C319.486 166.403 319.694 166.024 319.897 165.736L327.369 155.528C327.486 155.347 327.641 155.171 327.833 155C328.035 154.829 328.259 154.744 328.505 154.744H330.393ZM345.149 168.728V157.192H340.285C340.179 158.771 340.035 160.179 339.853 161.416C339.672 162.653 339.459 163.741 339.213 164.68C338.979 165.608 338.717 166.408 338.429 167.08C338.141 167.741 337.837 168.291 337.517 168.728H345.149ZM351.149 168.632V175.592C351.149 175.891 351.064 176.125 350.893 176.296C350.733 176.467 350.52 176.552 350.253 176.552H348.317V171H335.037V175.656C335.037 175.891 334.968 176.099 334.829 176.28C334.691 176.461 334.472 176.552 334.173 176.552H332.189V168.728H332.717C333.091 168.728 333.459 168.669 333.821 168.552C334.184 168.435 334.531 168.2 334.861 167.848C335.203 167.496 335.523 167 335.821 166.36C336.12 165.72 336.392 164.883 336.637 163.848C336.883 162.813 337.096 161.555 337.277 160.072C337.459 158.579 337.603 156.803 337.709 154.744H348.173V168.632H351.149ZM366.674 154.744L357.65 175.72C357.554 175.955 357.426 176.136 357.266 176.264C357.106 176.392 356.872 176.456 356.562 176.456H354.242L357.218 169.976L350.546 154.744H353.266C353.533 154.744 353.741 154.808 353.89 154.936C354.04 155.064 354.146 155.208 354.21 155.368L358.338 165.128C358.424 165.373 358.504 165.624 358.578 165.88C358.664 166.125 358.733 166.371 358.786 166.616C358.861 166.36 358.941 166.109 359.026 165.864C359.112 165.608 359.202 165.357 359.298 165.112L363.282 155.368C363.357 155.187 363.474 155.037 363.634 154.92C363.794 154.803 363.976 154.744 364.178 154.744H366.674ZM376.748 163.784C375.479 163.827 374.402 163.928 373.516 164.088C372.631 164.237 371.911 164.44 371.356 164.696C370.802 164.952 370.402 165.256 370.156 165.608C369.911 165.949 369.788 166.333 369.788 166.76C369.788 167.165 369.852 167.517 369.98 167.816C370.119 168.104 370.3 168.344 370.524 168.536C370.759 168.717 371.031 168.851 371.34 168.936C371.65 169.021 371.986 169.064 372.348 169.064C372.828 169.064 373.266 169.016 373.66 168.92C374.066 168.824 374.444 168.691 374.796 168.52C375.148 168.339 375.484 168.12 375.804 167.864C376.124 167.608 376.439 167.315 376.748 166.984V163.784ZM367.596 157.016C368.503 156.152 369.484 155.507 370.54 155.08C371.607 154.653 372.775 154.44 374.044 154.44C374.972 154.44 375.794 154.595 376.508 154.904C377.223 155.203 377.826 155.624 378.316 156.168C378.807 156.712 379.175 157.363 379.42 158.12C379.676 158.877 379.804 159.715 379.804 160.632V171H378.412C378.103 171 377.868 170.952 377.708 170.856C377.548 170.749 377.42 170.557 377.324 170.28L376.988 168.856C376.572 169.24 376.162 169.581 375.756 169.88C375.351 170.168 374.924 170.419 374.476 170.632C374.039 170.835 373.57 170.989 373.068 171.096C372.567 171.203 372.012 171.256 371.404 171.256C370.764 171.256 370.162 171.171 369.596 171C369.042 170.819 368.556 170.547 368.14 170.184C367.724 169.821 367.394 169.368 367.148 168.824C366.914 168.28 366.796 167.645 366.796 166.92C366.796 166.28 366.967 165.667 367.308 165.08C367.66 164.483 368.226 163.949 369.004 163.48C369.794 163.011 370.818 162.627 372.076 162.328C373.346 162.029 374.903 161.859 376.748 161.816V160.632C376.748 159.405 376.487 158.488 375.964 157.88C375.442 157.272 374.674 156.968 373.66 156.968C372.978 156.968 372.402 157.053 371.932 157.224C371.474 157.395 371.074 157.587 370.732 157.8C370.402 158.003 370.108 158.189 369.852 158.36C369.607 158.531 369.351 158.616 369.084 158.616C368.871 158.616 368.684 158.557 368.524 158.44C368.375 158.323 368.252 158.184 368.156 158.024L367.596 157.016Z" fill="white"/>
</svg>
