<svg width="448" height="309" viewBox="0 0 448 309" fill="none" xmlns="http://www.w3.org/2000/svg">
<path d="M446 178.5V51.5L390.5 51C390.5 32 376.5 2 342 2C308.5 2 294.5 36.3333 295.5 51H152.5C152.833 66.3333 140 97.5 106.5 97.5C68.8979 97.5 58.1667 66.6667 57.5 51H2V178L224 306.5L446 178.5Z" fill="#213C33" stroke="#EF767A" stroke-width="3"/>
<path d="M41.0065 142.848C41.8705 142.848 42.6278 142.736 43.2785 142.512C43.9398 142.288 44.4892 141.973 44.9265 141.568C45.3745 141.152 45.7105 140.661 45.9345 140.096C46.1585 139.52 46.2705 138.885 46.2705 138.192C46.2705 136.795 45.8332 135.696 44.9585 134.896C44.0945 134.096 42.7772 133.696 41.0065 133.696H37.4545V142.848H41.0065ZM41.0065 131.024C42.4785 131.024 43.7585 131.195 44.8465 131.536C45.9345 131.877 46.8358 132.363 47.5505 132.992C48.2652 133.611 48.7932 134.363 49.1345 135.248C49.4865 136.133 49.6625 137.115 49.6625 138.192C49.6625 139.269 49.4758 140.261 49.1025 141.168C48.7292 142.064 48.1798 142.837 47.4545 143.488C46.7292 144.139 45.8225 144.645 44.7345 145.008C43.6572 145.36 42.4145 145.536 41.0065 145.536H37.4545V154H34.0465V131.024H41.0065ZM60.3135 146.784C59.0442 146.827 57.9668 146.928 57.0815 147.088C56.1962 147.237 55.4762 147.44 54.9215 147.696C54.3668 147.952 53.9668 148.256 53.7215 148.608C53.4762 148.949 53.3535 149.333 53.3535 149.76C53.3535 150.165 53.4175 150.517 53.5455 150.816C53.6842 151.104 53.8655 151.344 54.0895 151.536C54.3242 151.717 54.5962 151.851 54.9055 151.936C55.2148 152.021 55.5508 152.064 55.9135 152.064C56.3935 152.064 56.8308 152.016 57.2255 151.92C57.6308 151.824 58.0095 151.691 58.3615 151.52C58.7135 151.339 59.0495 151.12 59.3695 150.864C59.6895 150.608 60.0042 150.315 60.3135 149.984V146.784ZM51.1615 140.016C52.0682 139.152 53.0495 138.507 54.1055 138.08C55.1722 137.653 56.3402 137.44 57.6095 137.44C58.5375 137.44 59.3588 137.595 60.0735 137.904C60.7882 138.203 61.3908 138.624 61.8815 139.168C62.3722 139.712 62.7402 140.363 62.9855 141.12C63.2415 141.877 63.3695 142.715 63.3695 143.632V154H61.9775C61.6682 154 61.4335 153.952 61.2735 153.856C61.1135 153.749 60.9855 153.557 60.8895 153.28L60.5535 151.856C60.1375 152.24 59.7268 152.581 59.3215 152.88C58.9162 153.168 58.4895 153.419 58.0415 153.632C57.6042 153.835 57.1348 153.989 56.6335 154.096C56.1322 154.203 55.5775 154.256 54.9695 154.256C54.3295 154.256 53.7268 154.171 53.1615 154C52.6068 153.819 52.1215 153.547 51.7055 153.184C51.2895 152.821 50.9588 152.368 50.7135 151.824C50.4788 151.28 50.3615 150.645 50.3615 149.92C50.3615 149.28 50.5322 148.667 50.8735 148.08C51.2255 147.483 51.7908 146.949 52.5695 146.48C53.3588 146.011 54.3828 145.627 55.6415 145.328C56.9108 145.029 58.4682 144.859 60.3135 144.816V143.632C60.3135 142.405 60.0522 141.488 59.5295 140.88C59.0068 140.272 58.2388 139.968 57.2255 139.968C56.5428 139.968 55.9668 140.053 55.4975 140.224C55.0388 140.395 54.6388 140.587 54.2975 140.8C53.9668 141.003 53.6735 141.189 53.4175 141.36C53.1722 141.531 52.9162 141.616 52.6495 141.616C52.4362 141.616 52.2495 141.557 52.0895 141.44C51.9402 141.323 51.8175 141.184 51.7215 141.024L51.1615 140.016ZM65.8182 139.44C66.4262 138.864 67.1729 138.395 68.0582 138.032C68.9436 137.669 70.0049 137.488 71.2422 137.488C72.2342 137.488 73.1089 137.611 73.8662 137.856C74.6236 138.091 75.2582 138.411 75.7702 138.816C76.2929 139.211 76.6822 139.664 76.9382 140.176C77.2049 140.688 77.3382 141.221 77.3382 141.776C77.3382 142.096 77.2849 142.432 77.1782 142.784C77.0822 143.125 76.9222 143.456 76.6982 143.776C76.4742 144.096 76.1756 144.395 75.8022 144.672C75.4396 144.939 74.9862 145.163 74.4422 145.344C75.4449 145.653 76.2396 146.144 76.8262 146.816C77.4129 147.488 77.7062 148.325 77.7062 149.328C77.7062 150.085 77.5302 150.768 77.1782 151.376C76.8369 151.984 76.3729 152.501 75.7862 152.928C75.1996 153.344 74.5222 153.664 73.7542 153.888C72.9862 154.112 72.1862 154.224 71.3542 154.224C70.8422 154.224 70.3142 154.176 69.7702 154.08C69.2369 153.984 68.7089 153.835 68.1862 153.632C67.6636 153.429 67.1676 153.168 66.6982 152.848C66.2289 152.528 65.8076 152.139 65.4342 151.68L66.3302 150.528C66.4689 150.336 66.6662 150.24 66.9222 150.24C67.1249 150.24 67.3329 150.325 67.5462 150.496C67.7702 150.656 68.0369 150.832 68.3462 151.024C68.6662 151.216 69.0449 151.397 69.4822 151.568C69.9302 151.728 70.4849 151.808 71.1462 151.808C71.7116 151.808 72.2129 151.739 72.6502 151.6C73.0982 151.461 73.4716 151.269 73.7702 151.024C74.0796 150.779 74.3142 150.491 74.4742 150.16C74.6342 149.829 74.7142 149.467 74.7142 149.072C74.7142 148.304 74.3996 147.691 73.7702 147.232C73.1409 146.773 72.1702 146.544 70.8582 146.544H69.0182V144.464H70.8582C72.0102 144.464 72.9062 144.251 73.5462 143.824C74.1862 143.387 74.5062 142.827 74.5062 142.144C74.5062 141.845 74.4369 141.563 74.2982 141.296C74.1596 141.019 73.9462 140.779 73.6582 140.576C73.3809 140.363 73.0289 140.197 72.6022 140.08C72.1862 139.963 71.7009 139.904 71.1462 139.904C70.5276 139.904 70.0049 139.968 69.5782 140.096C69.1516 140.213 68.7889 140.347 68.4902 140.496C68.1916 140.645 67.9409 140.784 67.7382 140.912C67.5462 141.029 67.3809 141.088 67.2422 141.088C67.0929 141.088 66.9649 141.061 66.8582 141.008C66.7622 140.944 66.6556 140.821 66.5382 140.64L65.8182 139.44ZM86.8492 151.808C87.8519 151.808 88.6466 151.573 89.2332 151.104C89.8199 150.624 90.1132 149.979 90.1132 149.168C90.1132 148.816 90.0599 148.491 89.9532 148.192C89.8466 147.883 89.6652 147.616 89.4092 147.392C89.1532 147.168 88.8172 146.997 88.4012 146.88C87.9852 146.752 87.4732 146.688 86.8652 146.688H83.4892V151.808H86.8492ZM83.4892 139.824V144.704H86.4812C86.9292 144.704 87.3399 144.64 87.7132 144.512C88.0972 144.384 88.4226 144.208 88.6892 143.984C88.9666 143.749 89.1799 143.472 89.3292 143.152C89.4892 142.821 89.5692 142.464 89.5692 142.08C89.5692 141.792 89.5159 141.515 89.4092 141.248C89.3132 140.981 89.1426 140.741 88.8972 140.528C88.6626 140.315 88.3479 140.144 87.9532 140.016C87.5586 139.888 87.0679 139.824 86.4812 139.824H83.4892ZM86.5772 137.744C87.5799 137.744 88.4439 137.845 89.1692 138.048C89.8946 138.24 90.4919 138.512 90.9612 138.864C91.4306 139.216 91.7719 139.627 91.9852 140.096C92.2092 140.565 92.3212 141.072 92.3212 141.616C92.3212 141.968 92.2732 142.336 92.1772 142.72C92.0812 143.104 91.9159 143.472 91.6812 143.824C91.4466 144.165 91.1266 144.48 90.7212 144.768C90.3266 145.056 89.8199 145.28 89.2012 145.44C90.3959 145.653 91.3239 146.08 91.9852 146.72C92.6572 147.36 92.9932 148.208 92.9932 149.264C92.9932 150.064 92.8279 150.763 92.4972 151.36C92.1772 151.947 91.7399 152.437 91.1852 152.832C90.6306 153.227 89.9799 153.52 89.2332 153.712C88.4866 153.904 87.6972 154 86.8652 154H80.5132V137.744H86.5772ZM102.675 137.488C103.869 137.488 104.947 137.685 105.907 138.08C106.877 138.464 107.699 139.024 108.371 139.76C109.053 140.485 109.576 141.365 109.939 142.4C110.301 143.424 110.483 144.576 110.483 145.856C110.483 147.136 110.301 148.293 109.939 149.328C109.576 150.363 109.053 151.243 108.371 151.968C107.699 152.693 106.877 153.253 105.907 153.648C104.947 154.032 103.869 154.224 102.675 154.224C101.469 154.224 100.381 154.032 99.4107 153.648C98.4507 153.253 97.6294 152.693 96.9467 151.968C96.2641 151.243 95.7361 150.363 95.3627 149.328C95.0001 148.293 94.8187 147.136 94.8187 145.856C94.8187 144.576 95.0001 143.424 95.3627 142.4C95.7361 141.365 96.2641 140.485 96.9467 139.76C97.6294 139.024 98.4507 138.464 99.4107 138.08C100.381 137.685 101.469 137.488 102.675 137.488ZM102.675 151.792C104.211 151.792 105.357 151.275 106.115 150.24C106.872 149.205 107.251 147.749 107.251 145.872C107.251 143.995 106.872 142.539 106.115 141.504C105.357 140.459 104.211 139.936 102.675 139.936C101.117 139.936 99.9547 140.459 99.1867 141.504C98.4294 142.539 98.0507 143.995 98.0507 145.872C98.0507 147.749 98.4294 149.205 99.1867 150.24C99.9547 151.275 101.117 151.792 102.675 151.792ZM116.525 137.744V155.024C116.525 155.696 116.435 156.32 116.253 156.896C116.083 157.483 115.805 157.989 115.421 158.416C115.048 158.853 114.557 159.195 113.949 159.44C113.352 159.685 112.627 159.808 111.773 159.808C111.421 159.808 111.101 159.781 110.813 159.728C110.515 159.675 110.216 159.6 109.917 159.504L110.045 157.808C110.088 157.605 110.184 157.493 110.333 157.472C110.472 157.451 110.744 157.44 111.149 157.44C111.971 157.44 112.552 157.253 112.893 156.88C113.235 156.507 113.405 155.888 113.405 155.024V137.744H116.525ZM117.117 132.72C117.117 133.008 117.059 133.285 116.941 133.552C116.824 133.808 116.664 134.037 116.461 134.24C116.259 134.432 116.024 134.587 115.757 134.704C115.501 134.811 115.224 134.864 114.925 134.864C114.637 134.864 114.365 134.811 114.109 134.704C113.853 134.587 113.624 134.432 113.421 134.24C113.229 134.037 113.075 133.808 112.957 133.552C112.851 133.285 112.797 133.008 112.797 132.72C112.797 132.421 112.851 132.144 112.957 131.888C113.075 131.621 113.229 131.392 113.421 131.2C113.624 130.997 113.853 130.843 114.109 130.736C114.365 130.619 114.637 130.56 114.925 130.56C115.224 130.56 115.501 130.619 115.757 130.736C116.024 130.843 116.259 130.997 116.461 131.2C116.664 131.392 116.824 131.621 116.941 131.888C117.059 132.144 117.117 132.421 117.117 132.72ZM141.424 137.744V154H138.288V146.512H130.848V154H127.728V137.744H130.848V144.144H138.288V137.744H141.424ZM153.823 146.784C152.554 146.827 151.476 146.928 150.591 147.088C149.706 147.237 148.986 147.44 148.431 147.696C147.876 147.952 147.476 148.256 147.231 148.608C146.986 148.949 146.863 149.333 146.863 149.76C146.863 150.165 146.927 150.517 147.055 150.816C147.194 151.104 147.375 151.344 147.599 151.536C147.834 151.717 148.106 151.851 148.415 151.936C148.724 152.021 149.06 152.064 149.423 152.064C149.903 152.064 150.34 152.016 150.735 151.92C151.14 151.824 151.519 151.691 151.871 151.52C152.223 151.339 152.559 151.12 152.879 150.864C153.199 150.608 153.514 150.315 153.823 149.984V146.784ZM144.671 140.016C145.578 139.152 146.559 138.507 147.615 138.08C148.682 137.653 149.85 137.44 151.119 137.44C152.047 137.44 152.868 137.595 153.583 137.904C154.298 138.203 154.9 138.624 155.391 139.168C155.882 139.712 156.25 140.363 156.495 141.12C156.751 141.877 156.879 142.715 156.879 143.632V154H155.487C155.178 154 154.943 153.952 154.783 153.856C154.623 153.749 154.495 153.557 154.399 153.28L154.063 151.856C153.647 152.24 153.236 152.581 152.831 152.88C152.426 153.168 151.999 153.419 151.551 153.632C151.114 153.835 150.644 153.989 150.143 154.096C149.642 154.203 149.087 154.256 148.479 154.256C147.839 154.256 147.236 154.171 146.671 154C146.116 153.819 145.631 153.547 145.215 153.184C144.799 152.821 144.468 152.368 144.223 151.824C143.988 151.28 143.871 150.645 143.871 149.92C143.871 149.28 144.042 148.667 144.383 148.08C144.735 147.483 145.3 146.949 146.079 146.48C146.868 146.011 147.892 145.627 149.151 145.328C150.42 145.029 151.978 144.859 153.823 144.816V143.632C153.823 142.405 153.562 141.488 153.039 140.88C152.516 140.272 151.748 139.968 150.735 139.968C150.052 139.968 149.476 140.053 149.007 140.224C148.548 140.395 148.148 140.587 147.807 140.8C147.476 141.003 147.183 141.189 146.927 141.36C146.682 141.531 146.426 141.616 146.159 141.616C145.946 141.616 145.759 141.557 145.599 141.44C145.45 141.323 145.327 141.184 145.231 141.024L144.671 140.016ZM176.477 146.784C175.208 146.827 174.131 146.928 173.246 147.088C172.36 147.237 171.64 147.44 171.085 147.696C170.531 147.952 170.131 148.256 169.885 148.608C169.64 148.949 169.517 149.333 169.517 149.76C169.517 150.165 169.581 150.517 169.709 150.816C169.848 151.104 170.029 151.344 170.253 151.536C170.488 151.717 170.76 151.851 171.069 151.936C171.379 152.021 171.715 152.064 172.077 152.064C172.557 152.064 172.995 152.016 173.389 151.92C173.795 151.824 174.173 151.691 174.526 151.52C174.878 151.339 175.214 151.12 175.533 150.864C175.854 150.608 176.168 150.315 176.477 149.984V146.784ZM167.325 140.016C168.232 139.152 169.213 138.507 170.269 138.08C171.336 137.653 172.504 137.44 173.773 137.44C174.701 137.44 175.523 137.595 176.238 137.904C176.952 138.203 177.555 138.624 178.045 139.168C178.536 139.712 178.904 140.363 179.149 141.12C179.405 141.877 179.533 142.715 179.533 143.632V154H178.142C177.832 154 177.597 153.952 177.438 153.856C177.278 153.749 177.15 153.557 177.054 153.28L176.717 151.856C176.302 152.24 175.891 152.581 175.486 152.88C175.08 153.168 174.653 153.419 174.205 153.632C173.768 153.835 173.299 153.989 172.797 154.096C172.296 154.203 171.741 154.256 171.133 154.256C170.493 154.256 169.891 154.171 169.325 154C168.771 153.819 168.285 153.547 167.869 153.184C167.453 152.821 167.123 152.368 166.877 151.824C166.643 151.28 166.525 150.645 166.525 149.92C166.525 149.28 166.696 148.667 167.037 148.08C167.389 147.483 167.955 146.949 168.733 146.48C169.523 146.011 170.547 145.627 171.806 145.328C173.075 145.029 174.632 144.859 176.477 144.816V143.632C176.477 142.405 176.216 141.488 175.693 140.88C175.171 140.272 174.403 139.968 173.389 139.968C172.707 139.968 172.131 140.053 171.661 140.224C171.203 140.395 170.803 140.587 170.461 140.8C170.131 141.003 169.837 141.189 169.581 141.36C169.336 141.531 169.08 141.616 168.813 141.616C168.6 141.616 168.413 141.557 168.253 141.44C168.104 141.323 167.981 141.184 167.885 141.024L167.325 140.016ZM192.83 138.592C192.99 138.347 193.204 138.144 193.47 137.984C193.737 137.824 194.02 137.744 194.318 137.744H196.766L192.654 143.888C192.398 144.293 192.132 144.624 191.854 144.88C191.577 145.136 191.236 145.333 190.83 145.472C191.342 145.621 191.774 145.845 192.126 146.144C192.478 146.432 192.793 146.811 193.07 147.28L197.214 154H195.054C194.489 154 194.052 153.909 193.742 153.728C193.444 153.536 193.188 153.264 192.974 152.912L189.998 148C189.753 147.595 189.444 147.291 189.07 147.088C188.708 146.885 188.286 146.784 187.806 146.784H186.126V154.016H183.006V137.744H186.126V144.688H187.598C188.046 144.688 188.425 144.597 188.734 144.416C189.054 144.235 189.326 143.968 189.55 143.616L192.83 138.592ZM212.699 140.112H206.571V154H203.435V140.112H197.307V137.744H212.699V140.112ZM228.71 137.744V154H225.574V143.376C225.574 143.163 225.585 142.928 225.606 142.672C225.628 142.405 225.66 142.139 225.702 141.872C225.596 142.096 225.489 142.309 225.382 142.512C225.286 142.704 225.185 142.875 225.078 143.024L217.606 153.216C217.489 153.408 217.334 153.589 217.142 153.76C216.95 153.931 216.732 154.016 216.486 154.016H214.598V137.744H217.718V148.384C217.718 148.597 217.708 148.837 217.686 149.104C217.665 149.36 217.633 149.616 217.59 149.872C217.804 149.403 218.012 149.024 218.214 148.736L225.686 138.528C225.804 138.347 225.958 138.171 226.15 138C226.353 137.829 226.577 137.744 226.822 137.744H228.71ZM238.699 151.808C239.702 151.808 240.496 151.573 241.083 151.104C241.67 150.624 241.963 149.979 241.963 149.168C241.963 148.816 241.91 148.491 241.803 148.192C241.696 147.883 241.515 147.616 241.259 147.392C241.003 147.168 240.667 146.997 240.251 146.88C239.835 146.752 239.323 146.688 238.715 146.688H235.339V151.808H238.699ZM235.339 139.824V144.704H238.331C238.779 144.704 239.19 144.64 239.563 144.512C239.947 144.384 240.272 144.208 240.539 143.984C240.816 143.749 241.03 143.472 241.179 143.152C241.339 142.821 241.419 142.464 241.419 142.08C241.419 141.792 241.366 141.515 241.259 141.248C241.163 140.981 240.992 140.741 240.747 140.528C240.512 140.315 240.198 140.144 239.803 140.016C239.408 139.888 238.918 139.824 238.331 139.824H235.339ZM238.427 137.744C239.43 137.744 240.294 137.845 241.019 138.048C241.744 138.24 242.342 138.512 242.811 138.864C243.28 139.216 243.622 139.627 243.835 140.096C244.059 140.565 244.171 141.072 244.171 141.616C244.171 141.968 244.123 142.336 244.027 142.72C243.931 143.104 243.766 143.472 243.531 143.824C243.296 144.165 242.976 144.48 242.571 144.768C242.176 145.056 241.67 145.28 241.051 145.44C242.246 145.653 243.174 146.08 243.835 146.72C244.507 147.36 244.843 148.208 244.843 149.264C244.843 150.064 244.678 150.763 244.347 151.36C244.027 151.947 243.59 152.437 243.035 152.832C242.48 153.227 241.83 153.52 241.083 153.712C240.336 153.904 239.547 154 238.715 154H232.363V137.744H238.427ZM258.364 144.064C258.364 143.445 258.274 142.875 258.092 142.352C257.922 141.829 257.666 141.376 257.324 140.992C256.983 140.608 256.567 140.309 256.076 140.096C255.586 139.883 255.02 139.776 254.38 139.776C253.068 139.776 252.034 140.155 251.276 140.912C250.53 141.669 250.055 142.72 249.852 144.064H258.364ZM260.94 151.68C260.556 152.128 260.114 152.517 259.612 152.848C259.111 153.168 258.578 153.429 258.012 153.632C257.447 153.835 256.86 153.984 256.252 154.08C255.655 154.176 255.063 154.224 254.476 154.224C253.356 154.224 252.316 154.037 251.356 153.664C250.407 153.28 249.58 152.725 248.876 152C248.183 151.264 247.639 150.357 247.244 149.28C246.86 148.192 246.668 146.944 246.668 145.536C246.668 144.405 246.844 143.355 247.196 142.384C247.548 141.403 248.05 140.549 248.7 139.824C249.362 139.099 250.167 138.528 251.116 138.112C252.066 137.696 253.132 137.488 254.316 137.488C255.308 137.488 256.22 137.653 257.052 137.984C257.895 138.304 258.62 138.773 259.228 139.392C259.836 140.011 260.311 140.773 260.652 141.68C261.004 142.587 261.18 143.621 261.18 144.784C261.18 145.264 261.127 145.589 261.02 145.76C260.914 145.92 260.716 146 260.428 146H249.772C249.804 146.971 249.943 147.819 250.188 148.544C250.434 149.259 250.77 149.856 251.196 150.336C251.634 150.816 252.151 151.173 252.748 151.408C253.346 151.643 254.012 151.76 254.748 151.76C255.442 151.76 256.039 151.68 256.54 151.52C257.052 151.36 257.49 151.189 257.852 151.008C258.226 150.816 258.535 150.64 258.78 150.48C259.036 150.32 259.26 150.24 259.452 150.24C259.708 150.24 259.906 150.336 260.044 150.528L260.94 151.68ZM277.526 137.744V154H274.39V146.512H266.95V154H263.83V137.744H266.95V144.144H274.39V137.744H277.526ZM299.234 140.112H291.698V154H288.578V137.744H299.234V140.112ZM313.697 154H310.577V140.192H305.729C305.601 142.24 305.409 144.011 305.153 145.504C304.897 146.987 304.588 148.251 304.225 149.296C303.863 150.331 303.457 151.173 303.009 151.824C302.572 152.464 302.103 152.965 301.601 153.328C301.111 153.68 300.604 153.915 300.081 154.032C299.559 154.16 299.036 154.224 298.513 154.224C297.543 154.224 297.057 154.064 297.057 153.744V151.776H297.921C298.284 151.776 298.647 151.717 299.009 151.6C299.383 151.472 299.745 151.232 300.097 150.88C300.46 150.517 300.801 150.016 301.121 149.376C301.441 148.736 301.735 147.899 302.001 146.864C302.268 145.819 302.497 144.549 302.689 143.056C302.881 141.563 303.031 139.792 303.137 137.744H313.697V154ZM324.317 137.488C325.512 137.488 326.589 137.685 327.549 138.08C328.52 138.464 329.341 139.024 330.013 139.76C330.696 140.485 331.218 141.365 331.581 142.4C331.944 143.424 332.125 144.576 332.125 145.856C332.125 147.136 331.944 148.293 331.581 149.328C331.218 150.363 330.696 151.243 330.013 151.968C329.341 152.693 328.52 153.253 327.549 153.648C326.589 154.032 325.512 154.224 324.317 154.224C323.112 154.224 322.024 154.032 321.053 153.648C320.093 153.253 319.272 152.693 318.589 151.968C317.906 151.243 317.378 150.363 317.005 149.328C316.642 148.293 316.461 147.136 316.461 145.856C316.461 144.576 316.642 143.424 317.005 142.4C317.378 141.365 317.906 140.485 318.589 139.76C319.272 139.024 320.093 138.464 321.053 138.08C322.024 137.685 323.112 137.488 324.317 137.488ZM324.317 151.792C325.853 151.792 327 151.275 327.757 150.24C328.514 149.205 328.893 147.749 328.893 145.872C328.893 143.995 328.514 142.539 327.757 141.504C327 140.459 325.853 139.936 324.317 139.936C322.76 139.936 321.597 140.459 320.829 141.504C320.072 142.539 319.693 143.995 319.693 145.872C319.693 147.749 320.072 149.205 320.829 150.24C321.597 151.275 322.76 151.792 324.317 151.792ZM342.312 151.904C343.858 151.904 345.016 151.419 345.784 150.448C346.562 149.467 346.952 148.08 346.952 146.288C346.952 144.507 346.573 143.125 345.816 142.144C345.069 141.152 343.944 140.656 342.44 140.656C341.704 140.656 341.042 140.773 340.456 141.008C339.88 141.232 339.384 141.568 338.968 142.016C338.562 142.464 338.253 143.019 338.04 143.68C337.826 144.331 337.72 145.083 337.72 145.936C337.72 147.824 338.104 149.291 338.872 150.336C339.64 151.381 340.786 151.904 342.312 151.904ZM343.416 134.16C342.36 134.245 341.448 134.475 340.68 134.848C339.922 135.211 339.293 135.707 338.792 136.336C338.301 136.965 337.928 137.717 337.672 138.592C337.416 139.456 337.266 140.432 337.224 141.52C337.49 141.04 337.821 140.603 338.216 140.208C338.621 139.813 339.08 139.477 339.592 139.2C340.104 138.912 340.664 138.693 341.272 138.544C341.88 138.395 342.52 138.32 343.192 138.32C344.28 138.32 345.256 138.512 346.12 138.896C346.984 139.28 347.714 139.819 348.312 140.512C348.92 141.205 349.384 142.043 349.704 143.024C350.024 143.995 350.184 145.077 350.184 146.272C350.184 147.488 349.997 148.587 349.624 149.568C349.25 150.539 348.717 151.371 348.024 152.064C347.341 152.757 346.514 153.291 345.544 153.664C344.573 154.037 343.496 154.224 342.312 154.224C341.192 154.224 340.152 154.043 339.192 153.68C338.242 153.307 337.416 152.699 336.712 151.856C336.008 151.013 335.453 149.909 335.048 148.544C334.653 147.179 334.456 145.499 334.456 143.504C334.456 141.808 334.61 140.245 334.92 138.816C335.229 137.387 335.725 136.139 336.408 135.072C337.101 134.005 338.002 133.147 339.112 132.496C340.221 131.845 341.57 131.456 343.16 131.328L348.952 130.848L349.128 132.48C349.17 132.832 349.117 133.131 348.968 133.376C348.829 133.621 348.584 133.755 348.232 133.776L343.416 134.16ZM361.717 146.784C360.448 146.827 359.37 146.928 358.485 147.088C357.6 147.237 356.88 147.44 356.325 147.696C355.77 147.952 355.37 148.256 355.125 148.608C354.88 148.949 354.757 149.333 354.757 149.76C354.757 150.165 354.821 150.517 354.949 150.816C355.088 151.104 355.269 151.344 355.493 151.536C355.728 151.717 356 151.851 356.309 151.936C356.618 152.021 356.954 152.064 357.317 152.064C357.797 152.064 358.234 152.016 358.629 151.92C359.034 151.824 359.413 151.691 359.765 151.52C360.117 151.339 360.453 151.12 360.773 150.864C361.093 150.608 361.408 150.315 361.717 149.984V146.784ZM352.565 140.016C353.472 139.152 354.453 138.507 355.509 138.08C356.576 137.653 357.744 137.44 359.013 137.44C359.941 137.44 360.762 137.595 361.477 137.904C362.192 138.203 362.794 138.624 363.285 139.168C363.776 139.712 364.144 140.363 364.389 141.12C364.645 141.877 364.773 142.715 364.773 143.632V154H363.381C363.072 154 362.837 153.952 362.677 153.856C362.517 153.749 362.389 153.557 362.293 153.28L361.957 151.856C361.541 152.24 361.13 152.581 360.725 152.88C360.32 153.168 359.893 153.419 359.445 153.632C359.008 153.835 358.538 153.989 358.037 154.096C357.536 154.203 356.981 154.256 356.373 154.256C355.733 154.256 355.13 154.171 354.565 154C354.01 153.819 353.525 153.547 353.109 153.184C352.693 152.821 352.362 152.368 352.117 151.824C351.882 151.28 351.765 150.645 351.765 149.92C351.765 149.28 351.936 148.667 352.277 148.08C352.629 147.483 353.194 146.949 353.973 146.48C354.762 146.011 355.786 145.627 357.045 145.328C358.314 145.029 359.872 144.859 361.717 144.816V143.632C361.717 142.405 361.456 141.488 360.933 140.88C360.41 140.272 359.642 139.968 358.629 139.968C357.946 139.968 357.37 140.053 356.901 140.224C356.442 140.395 356.042 140.587 355.701 140.8C355.37 141.003 355.077 141.189 354.821 141.36C354.576 141.531 354.32 141.616 354.053 141.616C353.84 141.616 353.653 141.557 353.493 141.44C353.344 141.323 353.221 141.184 353.125 141.024L352.565 140.016ZM382.694 154H379.574V140.192H374.726C374.598 142.24 374.406 144.011 374.15 145.504C373.894 146.987 373.584 148.251 373.222 149.296C372.859 150.331 372.454 151.173 372.006 151.824C371.568 152.464 371.099 152.965 370.598 153.328C370.107 153.68 369.6 153.915 369.078 154.032C368.555 154.16 368.032 154.224 367.51 154.224C366.539 154.224 366.054 154.064 366.054 153.744V151.776H366.918C367.28 151.776 367.643 151.717 368.006 151.6C368.379 151.472 368.742 151.232 369.094 150.88C369.456 150.517 369.798 150.016 370.118 149.376C370.438 148.736 370.731 147.899 370.998 146.864C371.264 145.819 371.494 144.549 371.686 143.056C371.878 141.563 372.027 139.792 372.134 137.744H382.694V154ZM397.153 144.064C397.153 143.445 397.063 142.875 396.881 142.352C396.711 141.829 396.455 141.376 396.113 140.992C395.772 140.608 395.356 140.309 394.865 140.096C394.375 139.883 393.809 139.776 393.169 139.776C391.857 139.776 390.823 140.155 390.065 140.912C389.319 141.669 388.844 142.72 388.641 144.064H397.153ZM399.729 151.68C399.345 152.128 398.903 152.517 398.401 152.848C397.9 153.168 397.367 153.429 396.801 153.632C396.236 153.835 395.649 153.984 395.041 154.08C394.444 154.176 393.852 154.224 393.265 154.224C392.145 154.224 391.105 154.037 390.145 153.664C389.196 153.28 388.369 152.725 387.665 152C386.972 151.264 386.428 150.357 386.033 149.28C385.649 148.192 385.457 146.944 385.457 145.536C385.457 144.405 385.633 143.355 385.985 142.384C386.337 141.403 386.839 140.549 387.489 139.824C388.151 139.099 388.956 138.528 389.905 138.112C390.855 137.696 391.921 137.488 393.105 137.488C394.097 137.488 395.009 137.653 395.841 137.984C396.684 138.304 397.409 138.773 398.017 139.392C398.625 140.011 399.1 140.773 399.441 141.68C399.793 142.587 399.969 143.621 399.969 144.784C399.969 145.264 399.916 145.589 399.809 145.76C399.703 145.92 399.505 146 399.217 146H388.561C388.593 146.971 388.732 147.819 388.977 148.544C389.223 149.259 389.559 149.856 389.985 150.336C390.423 150.816 390.94 151.173 391.537 151.408C392.135 151.643 392.801 151.76 393.537 151.76C394.231 151.76 394.828 151.68 395.329 151.52C395.841 151.36 396.279 151.189 396.641 151.008C397.015 150.816 397.324 150.64 397.569 150.48C397.825 150.32 398.049 150.24 398.241 150.24C398.497 150.24 398.695 150.336 398.833 150.528L399.729 151.68ZM416.315 137.744V154H413.179V146.512H405.739V154H402.619V137.744H405.739V144.144H413.179V137.744H416.315ZM174.359 180.112H166.823V194H163.703V177.744H174.359V180.112ZM179.4 190C179.912 190.672 180.461 191.141 181.048 191.408C181.645 191.675 182.312 191.808 183.048 191.808C184.477 191.808 185.581 191.296 186.36 190.272C187.149 189.237 187.544 187.733 187.544 185.76C187.544 184.725 187.453 183.845 187.272 183.12C187.101 182.384 186.845 181.787 186.504 181.328C186.173 180.859 185.763 180.517 185.272 180.304C184.781 180.08 184.227 179.968 183.608 179.968C182.701 179.968 181.912 180.171 181.24 180.576C180.579 180.981 179.965 181.557 179.4 182.304V190ZM179.24 180.176C179.581 179.771 179.944 179.403 180.328 179.072C180.723 178.731 181.144 178.443 181.592 178.208C182.04 177.963 182.515 177.776 183.016 177.648C183.528 177.509 184.072 177.44 184.648 177.44C185.576 177.44 186.413 177.621 187.16 177.984C187.917 178.347 188.563 178.88 189.096 179.584C189.629 180.288 190.04 181.157 190.328 182.192C190.627 183.227 190.776 184.416 190.776 185.76C190.776 186.965 190.611 188.085 190.28 189.12C189.96 190.144 189.496 191.035 188.888 191.792C188.291 192.549 187.555 193.147 186.68 193.584C185.816 194.011 184.84 194.224 183.752 194.224C182.781 194.224 181.949 194.064 181.256 193.744C180.563 193.424 179.944 192.976 179.4 192.4V199.456H176.28V177.744H178.152C178.589 177.744 178.861 177.952 178.968 178.368L179.24 180.176ZM202.281 186.784C201.012 186.827 199.934 186.928 199.049 187.088C198.164 187.237 197.444 187.44 196.889 187.696C196.334 187.952 195.934 188.256 195.689 188.608C195.444 188.949 195.321 189.333 195.321 189.76C195.321 190.165 195.385 190.517 195.513 190.816C195.652 191.104 195.833 191.344 196.057 191.536C196.292 191.717 196.564 191.851 196.873 191.936C197.182 192.021 197.518 192.064 197.881 192.064C198.361 192.064 198.798 192.016 199.193 191.92C199.598 191.824 199.977 191.691 200.329 191.52C200.681 191.339 201.017 191.12 201.337 190.864C201.657 190.608 201.972 190.315 202.281 189.984V186.784ZM193.129 180.016C194.036 179.152 195.017 178.507 196.073 178.08C197.14 177.653 198.308 177.44 199.577 177.44C200.505 177.44 201.326 177.595 202.041 177.904C202.756 178.203 203.358 178.624 203.849 179.168C204.34 179.712 204.708 180.363 204.953 181.12C205.209 181.877 205.337 182.715 205.337 183.632V194H203.945C203.636 194 203.401 193.952 203.241 193.856C203.081 193.749 202.953 193.557 202.857 193.28L202.521 191.856C202.105 192.24 201.694 192.581 201.289 192.88C200.884 193.168 200.457 193.419 200.009 193.632C199.572 193.835 199.102 193.989 198.601 194.096C198.1 194.203 197.545 194.256 196.937 194.256C196.297 194.256 195.694 194.171 195.129 194C194.574 193.819 194.089 193.547 193.673 193.184C193.257 192.821 192.926 192.368 192.681 191.824C192.446 191.28 192.329 190.645 192.329 189.92C192.329 189.28 192.5 188.667 192.841 188.08C193.193 187.483 193.758 186.949 194.537 186.48C195.326 186.011 196.35 185.627 197.609 185.328C198.878 185.029 200.436 184.859 202.281 184.816V183.632C202.281 182.405 202.02 181.488 201.497 180.88C200.974 180.272 200.206 179.968 199.193 179.968C198.51 179.968 197.934 180.053 197.465 180.224C197.006 180.395 196.606 180.587 196.265 180.8C195.934 181.003 195.641 181.189 195.385 181.36C195.14 181.531 194.884 181.616 194.617 181.616C194.404 181.616 194.217 181.557 194.057 181.44C193.908 181.323 193.785 181.184 193.689 181.024L193.129 180.016ZM219.466 180.112H211.93V194H208.81V177.744H219.466V180.112ZM218.506 170.768L214.714 174.896C214.554 175.077 214.399 175.205 214.25 175.28C214.1 175.344 213.903 175.376 213.658 175.376H211.77L214.138 171.504C214.287 171.259 214.447 171.077 214.618 170.96C214.799 170.832 215.076 170.768 215.45 170.768H218.506ZM229.967 186.784C228.697 186.827 227.62 186.928 226.735 187.088C225.849 187.237 225.129 187.44 224.575 187.696C224.02 187.952 223.62 188.256 223.375 188.608C223.129 188.949 223.007 189.333 223.007 189.76C223.007 190.165 223.071 190.517 223.199 190.816C223.337 191.104 223.519 191.344 223.743 191.536C223.977 191.717 224.249 191.851 224.559 191.936C224.868 192.021 225.204 192.064 225.567 192.064C226.047 192.064 226.484 192.016 226.879 191.92C227.284 191.824 227.663 191.691 228.015 191.52C228.367 191.339 228.703 191.12 229.023 190.864C229.343 190.608 229.657 190.315 229.967 189.984V186.784ZM220.815 180.016C221.721 179.152 222.703 178.507 223.759 178.08C224.825 177.653 225.993 177.44 227.263 177.44C228.191 177.44 229.012 177.595 229.727 177.904C230.441 178.203 231.044 178.624 231.535 179.168C232.025 179.712 232.393 180.363 232.639 181.12C232.895 181.877 233.023 182.715 233.023 183.632V194H231.631C231.321 194 231.087 193.952 230.927 193.856C230.767 193.749 230.639 193.557 230.543 193.28L230.207 191.856C229.791 192.24 229.38 192.581 228.975 192.88C228.569 193.168 228.143 193.419 227.695 193.632C227.257 193.835 226.788 193.989 226.287 194.096C225.785 194.203 225.231 194.256 224.623 194.256C223.983 194.256 223.38 194.171 222.815 194C222.26 193.819 221.775 193.547 221.359 193.184C220.943 192.821 220.612 192.368 220.367 191.824C220.132 191.28 220.015 190.645 220.015 189.92C220.015 189.28 220.185 188.667 220.527 188.08C220.879 187.483 221.444 186.949 222.223 186.48C223.012 186.011 224.036 185.627 225.295 185.328C226.564 185.029 228.121 184.859 229.967 184.816V183.632C229.967 182.405 229.705 181.488 229.183 180.88C228.66 180.272 227.892 179.968 226.879 179.968C226.196 179.968 225.62 180.053 225.151 180.224C224.692 180.395 224.292 180.587 223.951 180.8C223.62 181.003 223.327 181.189 223.071 181.36C222.825 181.531 222.569 181.616 222.303 181.616C222.089 181.616 221.903 181.557 221.743 181.44C221.593 181.323 221.471 181.184 221.375 181.024L220.815 180.016ZM250.191 177.744V194H247.055V186.512H239.615V194H236.495V177.744H239.615V184.144H247.055V177.744H250.191ZM267.966 177.744V194H264.83V183.376C264.83 183.163 264.841 182.928 264.862 182.672C264.883 182.405 264.915 182.139 264.958 181.872C264.851 182.096 264.745 182.309 264.638 182.512C264.542 182.704 264.441 182.875 264.334 183.024L256.862 193.216C256.745 193.408 256.59 193.589 256.398 193.76C256.206 193.931 255.987 194.016 255.742 194.016H253.854V177.744H256.974V188.384C256.974 188.597 256.963 188.837 256.942 189.104C256.921 189.36 256.889 189.616 256.846 189.872C257.059 189.403 257.267 189.024 257.47 188.736L264.942 178.528C265.059 178.347 265.214 178.171 265.406 178C265.609 177.829 265.833 177.744 266.078 177.744H267.966ZM285.315 177.744V194H282.179V186.512H274.739V194H271.619V177.744H274.739V184.144H282.179V177.744H285.315Z" fill="white"/>
</svg>
