<svg width="332" height="343" viewBox="0 0 332 343" fill="none" xmlns="http://www.w3.org/2000/svg">
<path d="M0.0943292 309.239C0.11569 327.281 14.9845 342.132 33.0271 342.132C62.1514 342.132 76.909 306.521 56.3216 285.92C35.7139 265.299 0.0598147 280.085 0.0943292 309.239Z" fill="#24463B"/>
<path d="M0.699814 129.947V113.391L19.2957 97.2866L50.963 69.8605L51.1289 70.0033V86.5594L50.963 86.4166L0.699814 129.947Z" fill="#24463B"/>
<path d="M0.699814 96.0107V79.4546L19.2957 63.3501L50.963 35.9239L51.1289 36.0668V52.6229L50.963 52.4801L0.699814 96.0107Z" fill="#24463B"/>
<path d="M0.699814 60.0869V43.5308L19.2957 27.4262L50.963 0.000118256L51.1289 0.142963V16.6991L50.963 16.5562L0.699814 60.0869Z" fill="#24463B"/>
<path d="M100.952 129.811L51.0436 86.5886V70.0325L82.5451 97.3158L101.026 113.324H101.03L101.205 113.476L101.473 113.701V129.958L101.205 129.764L100.952 129.811Z" fill="#1C362D"/>
<path d="M100.952 95.8701L51.0436 52.6482V36.0921L82.5451 63.3753L101.026 79.3831H101.03L101.205 79.5352L101.473 79.761V96.0176L101.205 95.824L100.952 95.8701Z" fill="#1C362D"/>
<path d="M100.952 59.9453L51.0436 16.7234V0.167248L82.5451 27.4505L101.026 43.4583H101.03L101.205 43.6104L101.473 43.8362V60.0928L101.205 59.8992L100.952 59.9453Z" fill="#1C362D"/>
<path d="M221.497 341.591L221.497 341.818L331.705 341.818L309.687 265.495L295.96 313.085L276.667 246.194L255.42 319.846L241.593 271.928L221.497 341.591Z" fill="black"/>
<path d="M287.668 341.82L331.705 341.82L309.687 265.496L295.96 313.086L287.668 341.82Z" fill="#24463B"/>
<path d="M221.496 341.59L221.496 341.818L261.758 341.818L255.419 319.846L241.592 271.928L221.496 341.59Z" fill="#24463B"/>
<path d="M249.077 341.818L304.252 341.818L295.96 313.085L276.667 246.194L255.421 319.846L249.077 341.818Z" fill="#1C362D"/>
<path d="M195.23 257.754C202.679 265.167 207.291 275.433 207.291 286.78C207.291 309.393 188.972 327.719 166.378 327.719C155.023 327.719 144.754 323.094 137.34 315.62L111.098 341.849L221.568 341.909L221.629 231.368L195.23 257.754Z" fill="#1C362D"/>
<path d="M166.378 245.835C143.779 245.835 125.465 264.166 125.465 286.774C125.465 298.025 130.002 308.216 137.345 315.614L195.234 257.748C187.831 250.39 177.637 245.835 166.378 245.835Z" fill="#1C362D"/>
<path d="M166.378 327.721C188.977 327.721 207.291 309.39 207.291 286.781C207.291 275.434 202.678 265.173 195.23 257.755L137.34 315.621C144.753 323.095 155.023 327.721 166.378 327.721Z" fill="#24463B"/>
<path d="M0.0556412 129.818L101.633 231.145L1.6508e-05 231.377L0.0556412 129.818ZM76.1389 205.779L25.5265 155.296L25.4986 205.895L76.1389 205.779Z" fill="#1C362D"/>
<path d="M76.123 159.671L76.0999 210.269L25.4875 159.787L76.123 159.671Z" fill="#1C362D"/>
<path d="M178.787 141.216C178.76 134.619 184.083 129.249 190.677 129.221C197.27 129.194 202.638 134.519 202.665 141.116C202.693 147.713 197.37 153.083 190.776 153.11C184.182 153.138 178.815 147.812 178.787 141.216Z" fill="#24463B"/>
<path d="M119.409 141.154C119.381 134.557 124.704 129.187 131.298 129.16C137.891 129.132 143.259 134.458 143.286 141.055C143.314 147.651 137.991 153.021 131.397 153.049C124.804 153.076 119.436 147.751 119.409 141.154Z" fill="#24463B"/>
<path d="M190.923 188.317C197.517 188.289 202.884 193.614 202.912 200.211C202.926 203.529 201.586 206.536 199.408 208.711L182.468 191.877C184.624 189.691 187.613 188.33 190.923 188.317Z" fill="#1F3930"/>
<path d="M119.656 200.559C119.629 193.962 124.951 188.592 131.545 188.565C135.008 188.55 138.129 190.016 140.32 192.359L123.538 209.317C121.167 207.145 119.671 204.03 119.656 200.559Z" fill="#1C362D"/>
<path d="M102.037 231.053L123.545 209.323C125.68 211.278 128.526 212.467 131.651 212.454C138.245 212.426 143.568 207.056 143.54 200.459C143.527 197.327 142.31 194.484 140.327 192.359L161.465 170.995L182.474 191.877C180.34 194.047 179.021 197.026 179.035 200.311C179.063 206.908 184.43 212.233 191.024 212.206C194.302 212.192 197.263 210.859 199.408 208.711L221.387 230.556L102.037 231.053Z" fill="#1C362D"/>
<path d="M179.034 200.313C179.02 197.028 180.333 194.049 182.473 191.879L199.407 208.713C197.257 210.861 194.295 212.194 191.023 212.208C184.429 212.235 179.062 206.91 179.034 200.313Z" fill="#24463B"/>
<path d="M131.645 212.455C128.52 212.468 125.674 211.279 123.538 209.324L140.321 192.365C142.299 194.485 143.521 197.334 143.534 200.466C143.562 207.058 138.239 212.427 131.645 212.455Z" fill="#24463B"/>
<path d="M0.0961669 311.903L81.1765 311.903L0 231.427L0.0961669 311.903Z" fill="#24463B"/>
<path d="M30.5395 341.995L111.62 341.995L30.4434 261.519L30.5395 341.995Z" fill="#24463B"/>
<path d="M55.7188 286.502L55.7188 341.606L110.858 286.437L55.7188 286.502Z" fill="#1C362D"/>
<path d="M55.8472 286.417L55.8472 231.313L0.712895 286.483L55.8472 286.417Z" fill="#1C362D"/>
</svg>
